<?xml version="1.0" encoding="utf-8"?>
<!-- Generator: Adobe Illustrator 16.0.0, SVG Export Plug-In . SVG Version: 6.00 Build 0)  -->
<!DOCTYPE svg PUBLIC "-//W3C//DTD SVG 1.1//EN" "http://www.w3.org/Graphics/SVG/1.1/DTD/svg11.dtd">
<svg version="1.1" id="Layer_1" xmlns="http://www.w3.org/2000/svg" xmlns:xlink="http://www.w3.org/1999/xlink" x="0px" y="0px"
	 width="612px" height="792px" viewBox="0 0 612 792" enable-background="new 0 0 612 792" xml:space="preserve">
<g>
	<path d="M353.967,515.174c-43.002,0-69.939-34.134-69.939-68.207c0-28.456,14.071-54.326,32.578-75.853
		c5.846,4.928,13.838,8.096,24.223,8.096c16.461,0,30.09-9.178,38.412-22.965c20.26-4.106,30.982-18.564,30.982-18.564v-8.43
		c0,0-8.854,15.577-27.908,21.148c3.699-8.089,5.756-17.338,5.756-27.042c0-3.102-0.096-6.099-0.236-9.045
		c3.752-2.039,7.014-3.653,9.605-4.799c13.854-6.121,14.438-5.259,14.438-5.259v-26.67c0,0-0.158-1.191-15.367,7.616
		c-3.34,1.933-7.082,4.245-11.121,6.909c-1.557-8.917-3.676-17.111-6.086-24.763c17.588-9.929,31.262-15.644,31.262-15.644
		l-0.342-26.185c0,0-7.959,8.64-19.123,17.224c-4.889,3.76-10.393,7.823-16.111,12.057c-2.633-7.125-5.373-13.839-7.934-20.36
		c10.326-6.707,20.869-13.187,25.932-16.93c10.119-7.48,17.578-16.688,17.578-16.688l-0.342-21.633c0,0-3.65,11.175-16.25,23.774
		c-5.986,5.986-18.459,15.342-29.838,23.834c-4.705-12.719-8.227-24.998-8.227-38.499c0-17.118,2.002-22.832,2.002-22.832h-6.203
		c0,0-1.705,7.241-1.705,22.832c0,16.146,3.756,29.508,8.75,42.52c-7.174,5.367-13.334,10.058-16.27,12.835
		c-19.471,18.413-28.344,35.364-28.344,57.623c0,3.499,0.264,6.838,0.756,10.019c-6.158,9.638-10.896,20.469-10.896,30.867
		c0,7.041,1.782,14.389,5.574,20.669c-18.172,24.723-31.411,53.376-31.411,83.899c0,35.901,30.131,73.302,75.92,73.302
		c39.873,0,60.275-31.698,60.275-31.698v-10.439C414.357,477.895,394.746,515.174,353.967,515.174z M340.828,374.007
		c-8.35,0-15.289-2.695-20.523-7.078c5.955-6.55,12.279-12.662,18.686-18.285c9.027,5.746,19.459,8.687,29.43,8.687
		c1.379,0,2.717-0.063,4.029-0.158C363.541,368.431,350.883,374.007,340.828,374.007z M383.475,323.302
		c0,11.449-2.865,20.926-7.32,28.473c-2.439,0.375-5.016,0.584-7.734,0.584c-9.635,0-18.346-2.543-25.678-6.948
		c14.578-12.319,29.26-22.062,40.609-28.591C383.43,318.935,383.475,321.092,383.475,323.302z M381.059,295.024
		c-14.664,10.063-32.471,24.25-49.125,41.478c-5.611-6.219-9.602-13.914-11.521-22.446c2.541-3.693,5.213-6.966,7.666-9.419
		c13.799-13.8,31.201-25.608,46.461-34.549C377.162,277.732,379.453,285.931,381.059,295.024z M319.111,302.339
		c0-16.706,6.047-32.376,24.223-50.551c3.744-3.744,10.67-8.701,18.293-13.781c2.754,6.654,5.711,13.337,8.533,20.374
		c-13.197,9.81-26.93,20.298-36.514,29.88c-4.303,4.305-9.57,10.12-14.465,16.785C319.137,304.149,319.111,303.247,319.111,302.339z
		 M309.203,342.084c0-6.61,3.297-14.905,7.635-22.382c2.506,8.036,6.621,14.814,11.75,20.313
		c-5.352,5.726-10.547,11.769-15.445,18.086C310.57,353.317,309.203,347.81,309.203,342.084z"/>
	<path d="M411.951,407.482c-0.116-0.178-11.929-17.771-37.721-17.771c-13.315,0-25.718,5.845-34.923,16.458
		c-7.738,8.922-12.546,20.55-12.546,30.347c0,21.663,16.007,38.633,36.441,38.633c0.001,0,0.001,0,0.002,0
		c9.129,0,17.543-3.773,23.693-10.625c5.375-5.988,8.584-13.888,8.584-21.129c0-16.183-9.836-29.348-21.926-29.348
		c-8.941,0-13.619,9.104-13.619,13.983c0,8.631,6.766,13.146,10.393,13.146c1.982,0,2.398-1.054,2.398-1.938
		c0-1.476-1.224-2.056-1.881-2.367l-0.16-0.076c-0.557-0.274-5.436-2.839-5.436-8.515c0-5.855,5.059-8.975,8.711-8.975
		c7.932,0,16.014,12.157,16.014,24.09c0,10.775-9.304,25.703-26.773,25.704c-14.534,0-30.221-12.442-30.221-32.544
		c0-23.227,21.777-40.581,41.248-40.581c28.148,0,36.75,22.44,36.834,22.667l0.969,2.628v-13.662L411.951,407.482z"/>
</g>
<g>
</g>
<g>
</g>
<g>
</g>
<g>
</g>
<g>
</g>
<g>
</g>
</svg>
