<?xml version="1.0" encoding="utf-8"?>
<!-- Generator: Adobe Illustrator 16.0.0, SVG Export Plug-In . SVG Version: 6.00 Build 0)  -->
<!DOCTYPE svg PUBLIC "-//W3C//DTD SVG 1.1//EN" "http://www.w3.org/Graphics/SVG/1.1/DTD/svg11.dtd">
<svg version="1.1" id="Layer_1" xmlns="http://www.w3.org/2000/svg" xmlns:xlink="http://www.w3.org/1999/xlink" x="0px" y="0px"
	 width="1190.55px" height="841.89px" viewBox="0 0 1190.55 841.89" enable-background="new 0 0 1190.55 841.89"
	 xml:space="preserve">
<g>
	<path fill-rule="evenodd" clip-rule="evenodd" d="M658.331,486.562c-0.869-0.217-1.76-0.327-2.648-0.327
		c-6.8,0-12.98,6.531-15.027,12.845c-2.59,7.987-1.479,16.926,2.972,23.91c2.98,4.681,7.822,7.258,13.635,7.258
		c1.656,0,3.354-0.216,5.045-0.642c0.504-0.127,0.998-0.271,1.482-0.429v-7.189c-0.803,0.323-1.625,0.607-2.479,0.829
		c-5.002,1.297-9.768-0.379-12.938-4.483c-2.991-3.872-4.074-9.249-2.826-14.032c1.096-4.195,4.147-8.521,8.497-8.73
		c4.208-0.178,7.691,3.506,9.747,7.33v-12.934C662.345,488.331,660.51,487.104,658.331,486.562z"/>
	<path fill-rule="evenodd" clip-rule="evenodd" d="M647.173,302.825c-3.146-0.395-6.369-0.594-9.578-0.594
		c-22.364,0-44.121,9.571-58.602,25.397c2.967-9.588,4.894-17.927,5.98-25.803c1.257-9.111,1.754-22.399-2.966-34.14
		c-0.019-2.101,0.259-4.152,0.825-6.1c1.873-6.449,6.888-12.318,13.416-15.699c3.787-1.962,8.297-3,13.041-3
		c8.289,0,15.96,3.188,20.52,8.526c3.838,4.492,3.938,10.066,1.474,15.2c-3.425,7.137-7.342,11.554-13.727,11.585l-0.21,0.001
		c-3.492,0-12.029-0.748-15.881-7.675c-1.57-2.822-1.698-5.825-0.36-8.455c0.633-1.243,1.58-2.343,2.583-3.509
		c1.417-1.646,3.337-2.477,3.604-5.628c0.039-0.461,0.068-0.921-0.193-1.303s-0.685-0.621-1.146-0.648
		c-0.534-0.032-1.08-0.049-1.634-0.049c-6.992,0-12.851,4.786-13.942,12.6c-1.142,8.17,3.278,13.238,9.124,16.81
		c4.496,2.746,10.211,4.258,16.093,4.258c12.322,0,20.576-10.538,22.576-20.649c1.09-5.515-0.172-10.666-3.647-14.896
		c-6.048-7.359-17.558-10.653-26.281-10.653c-1.476,0-2.902,0.09-4.243,0.269c-12.984,1.727-22.796,10.375-25.578,22.075
		c-1.103-1.692-2.321-3.263-3.646-4.698c-4.672-5.054-10.987-7.837-17.783-7.837c-8.045,0-15.826,3.952-20.814,10.57
		c-4.054,5.381-6.212,12.097-6.076,18.912c0.145,7.146,3.245,16.149,9.847,20.153c0.242,0.146,0.511,0.217,0.777,0.217
		c0.007,0,0.018,0,0.021,0c0.829,0,1.5-0.671,1.5-1.5c0-0.425-0.177-0.809-0.461-1.083c-4.436-5.77-5.675-14.397-3.151-22.046
		c2.214-6.71,6.952-11.51,13.002-13.168c1.743-0.478,3.429-0.72,5.011-0.72c12.491,0,18.347,15.447,19.565,28.674
		c1.842,19.945-2.903,38.641-9.01,56.045c-0.247-1.869-0.618-3.727-1.113-5.565c-2.485-9.238-8.018-17.233-16.515-23.819
		c-7.141-4.872-14.964-7.448-22.624-7.448c-4.862,0-9.599,1.033-14.078,3.069c-12.633,5.744-20.972,19.075-19.828,31.697
		c1.202,13.271,11.087,24.251,23.503,26.11c1.281,0.192,2.624,0.29,3.992,0.29c4.991,0,10.09-1.3,13.989-3.566
		c3.095-1.798,6.612-6.27,7.141-10.64c0.304-2.518-0.429-4.71-2.121-6.341c-1.169-1.123-2.636-1.741-4.13-1.741
		c-1.662,0-3.14,0.772-3.95,2.065c-0.864,1.378-0.866,3.117-0.007,4.894c0.073,0.151,0.171,0.289,0.29,0.407
		c0.679,0.679,1.454,1.741,1.297,2.946c-0.133,1.012-0.912,1.98-2.196,2.725c-3.169,1.838-7.009,2.85-10.813,2.851
		c-3.862,0-7.497-0.999-10.51-2.887c-6.066-3.803-9.765-9.724-10.414-16.672c-0.745-7.972,2.542-16.181,8.792-21.961
		c5.403-4.999,12.126-7.641,19.44-7.641c8.416,0,17.054,3.572,23.698,9.8c5.727,5.369,9.689,12.409,11.156,19.824
		c0.783,3.966,0.977,7.984,0.573,11.941c-0.036,0.349-0.359,1.653-0.646,2.803l-0.322,1.306c-1.089,2.789-2.193,5.572-3.297,8.353
		c-2.041,5.145-4.151,10.464-6.114,15.705c-11.121,29.707-21.465,64.826-13.86,100.059c5.932,27.482,22.019,53.055,45.297,72.004
		c12.168,9.905,27.146,18.468,44.519,25.45c8.545,3.437,17.778,6.519,27.443,9.163c2.558,0.7,5.18,1.375,7.997,2.062v-7.045
		c-8.896-3.88-19.162-9.338-26.588-16.253c-12.036-11.868-19.45-28.196-20.343-44.8c-0.933-17.331,4.181-34.814,13.344-45.629
		c5.904-6.966,15.255-11.468,23.822-11.468c3.548,0,6.812,0.743,9.765,2.181v-5.235c-3.513-1.525-7.483-2.352-11.908-2.22
		c-16.631,0.477-27.143,14.722-33.032,26.588c-6.604,13.306-8.53,28.59-5.568,44.2c3.712,19.56,14.894,37.199,30.668,48.989
		c-10.492-3.556-20.308-7.685-29.233-12.301c-22.353-11.56-40.658-26.949-52.938-44.503c-19.863-28.396-23.517-64.576-9.533-94.421
		c2.418-5.162,5.384-10.08,8.582-14.232c0.794-0.748,1.027-0.947,1.098-1.001c2.896-2.202,6.078-3.931,9.458-5.136
		c3.68-1.313,7.572-1.979,11.568-1.979c3.279,0,6.538,0.453,9.688,1.346c14.201,4.025,23.31,15.658,22.667,28.947
		c-0.632,13.014-10.657,23.603-22.349,23.604c-2.494,0.001-5.014-0.483-7.489-1.437c-6.161-2.375-10.195-6.465-12.333-12.503
		c-0.928-2.626-0.854-7.146,1.705-8.449c0.228-0.116,0.515-0.168,0.929-0.168c0.274,0,0.551,0.021,0.826,0.04
		c0.344,0.023,0.686,0.046,1.023,0.046c0.614,0,1.536-0.063,2.446-0.6c1.034-0.609,1.735-1.64,1.924-2.826
		c0.192-1.215-0.161-2.437-0.97-3.352c-1.286-1.458-2.913-2.229-4.704-2.229c-2.844,0-5.389,1.877-6.822,3.634
		c-2.692,3.301-3.632,7.82-2.645,12.729c1.453,7.2,6.38,13.489,13.519,17.254c3.781,1.993,8.056,3.047,12.361,3.047
		c3.688,0,7.314-0.74,10.777-2.199c6.794-2.862,12.102-8.91,15.377-17.567c2.622-8.28,1.941-17.089-1.916-24.803
		c-3.713-7.423-10.571-13.085-20.457-16.854c-8.106-2.627-16.75-2.706-24.764-0.228c4.148-2.884,8.486-4.68,12.968-5.364
		c1.343-0.204,2.723-0.308,4.101-0.308c10.898,0,20.604,6.304,26.828,11.592c0.278,0.235,0.624,0.356,0.972,0.356
		c0.007,0,0.013,0,0.02,0c0.829,0,1.5-0.672,1.5-1.5c0-0.198-0.038-0.388-0.108-0.562c-3.152-13.812-15.215-24.46-28.155-24.811
		c-14.536-0.428-26.894,9.623-33.507,18.982c-6.104,8.644-10.653,18.841-13.547,30.051c1.179-7.355,2.894-14.813,5.143-22.349
		c4.209-14.098,9.893-27.957,15.39-41.361c2.013-4.908,4.093-9.98,6.076-15.002c7.985-16.025,15.979-26.449,25.916-33.798
		c11.94-8.831,26.193-13.62,41.22-13.849c9.187-0.154,18.442,1.732,27.231,5.424v-5.399
		C658.518,304.894,652.946,303.549,647.173,302.825z"/>
	<path fill-rule="evenodd" clip-rule="evenodd" d="M646.89,334.435c-6.738,1.843-11.446,8.156-11.995,16.082
		c-1.051,15.203,14.048,28.206,28.639,31.534c0.085,0.02,0.171,0.032,0.256,0.051v-5.196c-9.936-2.805-18.241-9.563-21.027-17.874
		c-0.964-2.879-2.671-10.136,2.302-15.336c2.438-2.551,5.935-3.957,9.847-3.957c1.944,0,3.951,0.359,5.805,1.038
		c1.048,0.384,2.087,0.898,3.074,1.508v-6.541C658.209,333.507,652.203,332.98,646.89,334.435z"/>
	<path fill-rule="evenodd" clip-rule="evenodd" d="M657.104,361.613c-0.148,0.622,0.112,1.27,0.651,1.614
		c1.677,1.071,3.793,1.803,6.033,2.118v-6.178c-1.868,0.746-3.827,1.151-5.372,1.303
		C657.78,360.533,657.254,360.992,657.104,361.613z"/>
</g>
</svg>
