<?xml version="1.0" encoding="utf-8"?>
<!-- Generator: Adobe Illustrator 16.0.0, SVG Export Plug-In . SVG Version: 6.00 Build 0)  -->
<!DOCTYPE svg PUBLIC "-//W3C//DTD SVG 1.1//EN" "http://www.w3.org/Graphics/SVG/1.1/DTD/svg11.dtd">
<svg version="1.1" id="Layer_1" xmlns="http://www.w3.org/2000/svg" xmlns:xlink="http://www.w3.org/1999/xlink" x="0px" y="0px"
	 width="612px" height="792px" viewBox="0 0 612 792" enable-background="new 0 0 612 792" xml:space="preserve">
<g>
	<path fill="none" stroke="#010101" stroke-width="0.37" stroke-miterlimit="10" d="M311.904,233.001
		c7.288,0.566,13.956-2.823,15.727-11.376c1.631-7.89-6.89-11.806-10.493-10.165c-2.727,1.238-3.931,4.453-2.688,7.179
		c1.235,2.727,4.454,3.936,7.179,2.687c0.339-0.148,0.646-0.332,0.934-0.538c-0.861,10.005-18.097,7.23-24.504-6.859
		c-3.795-8.33,1.751-20.656,9.463-24.166c5.138-2.338,11.048-2.485,16.925-1.071c14.931,3.553,29.68,17.088,31.234,30.067
		c2.062,17.264-5.969,32.829-12.216,48.4c-5.914,14.731-10.233,29.469-2.876,45.642c4.397,9.672,11.184,16.251,18.835,20.207
		c9.914,5.119,21.285,5.839,30.853,3.133c7.451-2.104,19.883-6.85,18.787-9.253c-1.091-2.405-14.401,2.293-20.479,3.161
		c-12.761,1.818-23.836-1.192-32.344-10.177c-0.656-0.691-1.296-1.406-1.923-2.165c-2.099-2.566-5.041-6.371-5.336-10.892
		c-0.185-2.209,1.2-5.08,2.266-7.541c3.782-8.703,11.021-16.084,16.34-14.926c7.088,1.537,1.688,16.485,7.659,15.39
		c8.392-1.492,12.458-11.015,5.063-16.967c-3.39-2.724-8.172-2.863-11.241-1.769c-5.375,1.917-4.125,0.292-4.125,0.292
		c4.726-6.454,24.307-7.6,35.753,4.124c9.286,16.275,0.513,30.259-8.544,27.68c-4.4-1.258-5.577-5.503-5.251-7.515
		c1.59,0.184,3.165-0.738,3.735-2.313c0.655-1.847-0.3-3.87-2.138-4.528c-3.431-1.235-5.505,2.283-5.87,5.856
		c-0.719,6.961,3.686,11.298,8.503,13.031c5.74,2.068,12.035-2.06,15.253-8.463c3.391-6.733,4.578-16.472,0.695-22.34
		c-7.345-11.095-17.951-14.665-27.972-14.058c-10.621,0.65-20.926,6.915-27.056,16.805c1.425-12.771,10.845-15.437,17.704-20.878
		c6.946-0.89,10.577-6.683,10.854-12.643c-0.806-1.728-6.2,0.125-9.548,2.82c1.46-3.061,2.764-8.917,1.462-11.989
		c-12.585,4.18-9.107,14.131-6.328,20.453c-7.857,4.087-13.585,7.71-17.857,18.048c-1.063-15.504,13.687-46.754,13.437-62.421
		c-0.787-22.328-8.461-35.099-25.448-50.927c-0.138,0.229,1.04,7.887,0.164,12.219c-4.549-1.969-9.318-3.242-14.02-3.731
		l0.002,0.007c-16.026-1.674-31.15,5.819-33.074,26.293C287.979,221.948,300.678,232.158,311.904,233.001z"/>
	<path fill="none" stroke="#010101" stroke-width="0.37" stroke-miterlimit="10" d="M417.513,492.073l-5.563-8.428
		c0.083,2.028-0.226,4.144-0.928,6.225c-6.493,19.25-51.888,14.39-77.144,8.869c2.592-8.577,3.753-16.512,0.722-16.527
		c-3.263-0.02-7.325,20.368-15.172,30.479c-3.476,4.48-7.762,8.393-12.516,11.754c0.221-1.061,0.313-2.151,0.298-3.26
		c-0.193-9.852-7.33-17.265-18.748-16.413c-6.227,0.459-8.728,6.013-7.673,8.879c0.233,2.286,2.177,4.04,4.505,4.002
		c2.486-0.043,4.455-2.092,4.405-4.563c-0.021-0.86-0.28-1.633-0.713-2.307c0.979-0.346,2.188-0.533,3.785-0.398
		c5.766,0.476,9.079,5.273,9.181,10.9c0.071,3.022-1.187,5.783-3.375,8.268c-0.347,0.18-0.704,0.385-1.061,0.564
		c-6.445,3.292-13.425,5.705-20.693,7.059c-6.043-0.579-12.088-0.183-17.903,0.98c-19.534,3.909-37.04,18.137-45.88,38.023
		c-0.618-24.043,16.182-31.37,27.508-43.203c12.657-3.421,17.911-15.08,16.914-26.212c-1.946-2.979-11.465,1.825-16.988,7.668
		c1.936-6.037,2.86-17.23-0.32-22.591c-22.289,10.951-13.307,28.508-6.553,39.523c-18.877,13.343-38.559,44.688-26.175,74.82
		c7.216-25.309,19.542-44.676,33.078-43.627c13.528,1.042,8.085,20.834,18.119,26.584c15.162-4.904,20.296-23.586,5.055-32.747
		c-8.761-5.272-17.195-3.004-32.205,5.266c7.549-13.522,48.21-24.507,62.299-10.656c-5.852,7.291-9.344,18.497,3.978,32.972
		c8.849-10.328,7.742-19.359,3.364-29.313c25.136,27.146,9.687,57.417-7.768,54.929c-8.457-1.205-11.733-8.77-11.647-12.587
		c2.994-0.061,5.68-2.165,6.333-5.238c0.772-3.575-1.528-7.091-5.097-7.847c-6.671-1.416-9.629,5.635-9.403,12.345
		c0.441,13.098,9.72,20.019,19.078,22.003c11.178,2.375,21.785-6.877,26.128-19.579c4.568-13.33,4.303-31.689-4.39-41.578
		c-6.498-7.394-13.636-12.438-21.025-15.657c2.807-1.106,5.533-2.367,8.159-3.8c9.42-5.033,18.09-11.521,24.137-19.799
		c1.589-2.184,3.439-5.967,5.165-10.287c10.456,2.002,22.973,3.581,35.238,3.831c1.071,1.316,2.064,2.855,2.931,4.68
		c-17.599,16.44-3.294,31.395-19.007,38.889c-5.629,2.686-11.564,1.476-16.407,0.158c4.656,10.69,12.466,12.45,22.99,6.994
		c0.115,1.302,0.415,5.21,0.664,8.073c23.726-12.829,27.894-39.76,12.996-58.767C392.243,511.321,412.602,506.603,417.513,492.073z"
		/>
	<path fill="none" stroke="#010101" stroke-width="0.37" stroke-miterlimit="10" d="M261.317,483.756
		c3.231,3.5,8.238,5.26,13.746,2.303c2.611-1.39,3.264-2.613,4.075-5.32c1.08-2.746,0.444-4.664-1.232-6.068
		c-0.181-0.166-0.369-0.321-0.588-0.442c-0.372-0.253-1.616-0.595-1.817-0.53c-0.393-0.009-0.797,0.023-1.184,0.146
		c-1.977,0.607-3.074,2.688-2.474,4.656c0.008,0.035,0.876,2.282-1.104,2.89c-1.372,0.419-2.996-1.394-3.788-3.979
		c-0.406-1.341-0.061-6.685,3.585-7.797c21.452-6.579,38.879,39.787,63.5,8.598c37.874,12.037,26.34-36.129,47.784-42.699
		c3.635-1.113,6.926,3.108,7.34,4.447c0.783,2.583,0.451,5.001-0.916,5.418c-1.975,0.611-2.53-1.739-2.532-1.767
		c-0.607-1.973-2.689-3.07-4.653-2.474c-0.394,0.117-0.745,0.313-1.067,0.541c-0.201,0.062-1.05,1.04-1.209,1.462
		c-0.106,0.228-0.186,0.448-0.242,0.692c-0.604,2.101-0.045,4.039,2.386,5.724c2.188,1.773,3.405,2.418,6.369,2.122
		c6.202-0.645,9.365-4.913,10.091-9.63c1.83-11.936-8.948-16.529-16.38-16.173c0.354-4.186,1.07-8.198-0.152-13.814
		c-23.318,10.027-16.996,38.817-29.724,53.949c6.366-14.409,4.926-33.143,11.853-49.079c-1.068-0.373-3.549,0.813-4.474,1.373
		c0.658-8.18,5.452-9.864,11.074-9.093c-2.692-3.955-5.766-4.659-10.253-4.196c-7.575,0.76-10.346,10.015-12.132,21.396
		c-0.309-0.501-0.614-1.003-0.968-1.491c-10.1-13.948-18.539-18.521-31.736-15.968c6.185,1.262,14.823,5.294,15.47,13.848
		c-4.916,0.26-8.262,0.397-12.41,4.481c-3.4,3.349-2.92,9.201,0.354,14.121c2.508-5.446,9.406-6.15,14.365-4.607
		c6.029,1.871,9.541,8.097,10.246,14.316c0.616,5.487-1.284,10.931-9.822,13.555c-6.545,2.008-11.836-1.413-12.723-4.291
		c-2.612-8.529,9.114-8.428,11.734-3.529c1.748-4.244,1.162-8.344-3.454-11.384c-6.825-4.176-12.026-0.404-16,2.09
		c-5.109-7.745-7.699-19.651-4.679-24.042c3.664-5.331,11.964-5.663,13.99-2.617c1.309-1.003,0.059-4.525-2.627-6.474
		c-3.841-2.778-10.405-3.666-15.246-0.639c-8.322,5.215-10.976,18.815-8.571,29.974c-8.237-8.978-16.064-15.763-23.056-12
		c-3.969,2.136-6.124,4.445-6.138,9.22c4.226-3.79,9.138-5.065,14.269,1.341c-1.072,0.05-3.798,0.451-4.478,1.358
		c14.669,9.31,23.979,25.646,37.325,34.007c-19.021-5.409-29.927-32.795-54.857-28.027c2.142,5.336,4.985,8.26,7.615,11.53
		C259.45,465.048,253.102,474.891,261.317,483.756z"/>
</g>
</svg>
