  0
SECTION
  2
HEADER
  9
$ACADVER
  1
AC1018
  9
$ACADMAINTVER
 70
     0
  9
$DWGCODEPAGE
  3
ANSI_1252
  9
$INSBASE
 10
0.0
 20
0.0
 30
0.0
  9
$EXTMIN
 10
1.000000000000000E+20
 20
1.000000000000000E+20
 30
1.000000000000000E+20
  9
$EXTMAX
 10
-1.000000000000000E+20
 20
-1.000000000000000E+20
 30
-1.000000000000000E+20
  9
$LIMMIN
 10
0.0
 20
0.0
  9
$LIMMAX
 10
12.0
 20
9.0
  9
$ORTHOMODE
 70
     0
  9
$REGENMODE
 70
     1
  9
$FILLMODE
 70
     1
  9
$QTEXTMODE
 70
     0
  9
$MIRRTEXT
 70
     1
  9
$LTSCALE
 40
1.0
  9
$ATTMODE
 70
     1
  9
$TEXTSIZE
 40
0.2
  9
$TRACEWID
 40
0.05
  9
$TEXTSTYLE
  7
Standard
  9
$CLAYER
  8
0
  9
$CELTYPE
  6
ByLayer
  9
$CECOLOR
 62
   256
  9
$CELTSCALE
 40
1.0
  9
$DISPSILH
 70
     0
  9
$DIMSCALE
 40
1.0
  9
$DIMASZ
 40
0.18
  9
$DIMEXO
 40
0.0625
  9
$DIMDLI
 40
0.38
  9
$DIMRND
 40
0.0
  9
$DIMDLE
 40
0.0
  9
$DIMEXE
 40
0.18
  9
$DIMTP
 40
0.0
  9
$DIMTM
 40
0.0
  9
$DIMTXT
 40
0.18
  9
$DIMCEN
 40
0.09
  9
$DIMTSZ
 40
0.0
  9
$DIMTOL
 70
     0
  9
$DIMLIM
 70
     0
  9
$DIMTIH
 70
     1
  9
$DIMTOH
 70
     1
  9
$DIMSE1
 70
     0
  9
$DIMSE2
 70
     0
  9
$DIMTAD
 70
     0
  9
$DIMZIN
 70
     0
  9
$DIMBLK
  1

  9
$DIMASO
 70
     1
  9
$DIMSHO
 70
     1
  9
$DIMPOST
  1

  9
$DIMAPOST
  1

  9
$DIMALT
 70
     0
  9
$DIMALTD
 70
     2
  9
$DIMALTF
 40
25.4
  9
$DIMLFAC
 40
1.0
  9
$DIMTOFL
 70
     0
  9
$DIMTVP
 40
0.0
  9
$DIMTIX
 70
     0
  9
$DIMSOXD
 70
     0
  9
$DIMSAH
 70
     0
  9
$DIMBLK1
  1

  9
$DIMBLK2
  1

  9
$DIMSTYLE
  2
Standard
  9
$DIMCLRD
 70
     0
  9
$DIMCLRE
 70
     0
  9
$DIMCLRT
 70
     0
  9
$DIMTFAC
 40
1.0
  9
$DIMGAP
 40
0.09
  9
$DIMJUST
 70
     0
  9
$DIMSD1
 70
     0
  9
$DIMSD2
 70
     0
  9
$DIMTOLJ
 70
     1
  9
$DIMTZIN
 70
     0
  9
$DIMALTZ
 70
     0
  9
$DIMALTTZ
 70
     0
  9
$DIMUPT
 70
     0
  9
$DIMDEC
 70
     4
  9
$DIMTDEC
 70
     4
  9
$DIMALTU
 70
     2
  9
$DIMALTTD
 70
     2
  9
$DIMTXSTY
  7
Standard
  9
$DIMAUNIT
 70
     0
  9
$DIMADEC
 70
     0
  9
$DIMALTRND
 40
0.0
  9
$DIMAZIN
 70
     0
  9
$DIMDSEP
 70
    46
  9
$DIMATFIT
 70
     3
  9
$DIMFRAC
 70
     0
  9
$DIMLDRBLK
  1

  9
$DIMLUNIT
 70
     2
  9
$DIMLWD
 70
    -2
  9
$DIMLWE
 70
    -2
  9
$DIMTMOVE
 70
     0
  9
$LUNITS
 70
     2
  9
$LUPREC
 70
     4
  9
$SKETCHINC
 40
0.1
  9
$FILLETRAD
 40
0.5
  9
$AUNITS
 70
     0
  9
$AUPREC
 70
     0
  9
$MENU
  1
.
  9
$ELEVATION
 40
0.0
  9
$PELEVATION
 40
0.0
  9
$THICKNESS
 40
0.0
  9
$LIMCHECK
 70
     0
  9
$CHAMFERA
 40
0.5
  9
$CHAMFERB
 40
0.5
  9
$CHAMFERC
 40
1.0
  9
$CHAMFERD
 40
0.0
  9
$SKPOLY
 70
     0
  9
$TDCREATE
 40
2457506.697798206
  9
$TDUCREATE
 40
2457506.989464873
  9
$TDUPDATE
 40
2457506.697798218
  9
$TDUUPDATE
 40
2457506.989464884
  9
$TDINDWG
 40
0.0000000116
  9
$TDUSRTIMER
 40
0.0000000116
  9
$USRTIMER
 70
     1
  9
$ANGBASE
 50
0.0
  9
$ANGDIR
 70
     0
  9
$PDMODE
 70
     0
  9
$PDSIZE
 40
0.0
  9
$PLINEWID
 40
0.0
  9
$SPLFRAME
 70
     0
  9
$SPLINETYPE
 70
     6
  9
$SPLINESEGS
 70
     8
  9
$HANDSEED
  5
44
  9
$SURFTAB1
 70
     6
  9
$SURFTAB2
 70
     6
  9
$SURFTYPE
 70
     6
  9
$SURFU
 70
     6
  9
$SURFV
 70
     6
  9
$UCSBASE
  2

  9
$UCSNAME
  2

  9
$UCSORG
 10
0.0
 20
0.0
 30
0.0
  9
$UCSXDIR
 10
1.0
 20
0.0
 30
0.0
  9
$UCSYDIR
 10
0.0
 20
1.0
 30
0.0
  9
$UCSORTHOREF
  2

  9
$UCSORTHOVIEW
 70
     0
  9
$UCSORGTOP
 10
0.0
 20
0.0
 30
0.0
  9
$UCSORGBOTTOM
 10
0.0
 20
0.0
 30
0.0
  9
$UCSORGLEFT
 10
0.0
 20
0.0
 30
0.0
  9
$UCSORGRIGHT
 10
0.0
 20
0.0
 30
0.0
  9
$UCSORGFRONT
 10
0.0
 20
0.0
 30
0.0
  9
$UCSORGBACK
 10
0.0
 20
0.0
 30
0.0
  9
$PUCSBASE
  2

  9
$PUCSNAME
  2

  9
$PUCSORG
 10
0.0
 20
0.0
 30
0.0
  9
$PUCSXDIR
 10
1.0
 20
0.0
 30
0.0
  9
$PUCSYDIR
 10
0.0
 20
1.0
 30
0.0
  9
$PUCSORTHOREF
  2

  9
$PUCSORTHOVIEW
 70
     0
  9
$PUCSORGTOP
 10
0.0
 20
0.0
 30
0.0
  9
$PUCSORGBOTTOM
 10
0.0
 20
0.0
 30
0.0
  9
$PUCSORGLEFT
 10
0.0
 20
0.0
 30
0.0
  9
$PUCSORGRIGHT
 10
0.0
 20
0.0
 30
0.0
  9
$PUCSORGFRONT
 10
0.0
 20
0.0
 30
0.0
  9
$PUCSORGBACK
 10
0.0
 20
0.0
 30
0.0
  9
$USERI1
 70
     0
  9
$USERI2
 70
     0
  9
$USERI3
 70
     0
  9
$USERI4
 70
     0
  9
$USERI5
 70
     0
  9
$USERR1
 40
0.0
  9
$USERR2
 40
0.0
  9
$USERR3
 40
0.0
  9
$USERR4
 40
0.0
  9
$USERR5
 40
0.0
  9
$WORLDVIEW
 70
     1
  9
$SHADEDGE
 70
     3
  9
$SHADEDIF
 70
    70
  9
$TILEMODE
 70
     1
  9
$MAXACTVP
 70
    64
  9
$PINSBASE
 10
0.0
 20
0.0
 30
0.0
  9
$PLIMCHECK
 70
     0
  9
$PEXTMIN
 10
1.000000000000000E+20
 20
1.000000000000000E+20
 30
1.000000000000000E+20
  9
$PEXTMAX
 10
-1.000000000000000E+20
 20
-1.000000000000000E+20
 30
-1.000000000000000E+20
  9
$PLIMMIN
 10
0.0
 20
0.0
  9
$PLIMMAX
 10
12.0
 20
9.0
  9
$UNITMODE
 70
     0
  9
$VISRETAIN
 70
     1
  9
$PLINEGEN
 70
     0
  9
$PSLTSCALE
 70
     1
  9
$TREEDEPTH
 70
  3020
  9
$CMLSTYLE
  2
Standard
  9
$CMLJUST
 70
     0
  9
$CMLSCALE
 40
1.0
  9
$PROXYGRAPHICS
 70
     1
  9
$MEASUREMENT
 70
     0
  9
$CELWEIGHT
370
    -1
  9
$ENDCAPS
280
     0
  9
$JOINSTYLE
280
     0
  9
$LWDISPLAY
290
     1
  9
$INSUNITS
 70
     1
  9
$HYPERLINKBASE
  1

  9
$STYLESHEET
  1

  9
$XEDIT
290
     1
  9
$CEPSNTYPE
380
     0
  9
$PSTYLEMODE
290
     1
  9
$FINGERPRINTGUID
  2
{9C5F1686-EFDC-449C-9F45-D6CA63186319}
  9
$VERSIONGUID
  2
{FAEB1C32-E019-11D5-929B-00C0DF256EC4}
  9
$EXTNAMES
290
     1
  9
$PSVPSCALE
 40
0.0
  9
$OLESTARTUP
290
     0
  9
$SORTENTS
280
   127
  9
$INDEXCTL
280
     0
  9
$HIDETEXT
280
     1
  9
$XCLIPFRAME
290
     0
  9
$HALOGAP
280
     0
  9
$OBSCOLOR
 70
   257
  9
$OBSLTYPE
280
     0
  9
$INTERSECTIONDISPLAY
280
     0
  9
$INTERSECTIONCOLOR
 70
   257
  9
$DIMASSOC
280
     2
  9
$PROJECTNAME
  1

  0
ENDSEC
  0
SECTION
  2
CLASSES
  0
CLASS
  1
ACDBDICTIONARYWDFLT
  2
AcDbDictionaryWithDefault
  3
ObjectDBX Classes
 90
        0
 91
        3
280
     0
281
     0
  0
CLASS
  1
VISUALSTYLE
  2
AcDbVisualStyle
  3
ObjectDBX Classes
 90
     4095
 91
        3
280
     0
281
     0
  0
ENDSEC
  0
SECTION
  2
TABLES
  0
TABLE
  2
VPORT
  5
8
330
0
100
AcDbSymbolTable
 70
     1
  0
VPORT
  5
29
330
8
100
AcDbSymbolTableRecord
100
AcDbViewportTableRecord
  2
*Active
 70
     0
 10
0.0
 20
0.0
 11
1.0
 21
1.0
 12
0.0
 22
0.0
 13
0.0
 23
0.0
 14
0.5
 24
0.5
 15
0.5
 25
0.5
 16
0.0
 26
0.0
 36
1.0
 17
107.9499999730125
 27
-139.699999965075
 37
0.0
 40
279.39999993015
 41
0.7727272727272728
 42
50.0
 43
0.0
 44
0.0
 50
0.0
 51
0.0
 71
     0
 72
   100
 73
     1
 74
     3
 75
     0
 76
     0
 77
     0
 78
     0
281
     0
 65
     1
110
0.0
120
0.0
130
0.0
111
1.0
121
0.0
131
0.0
112
0.0
122
1.0
132
0.0
 79
     0
146
0.0
  0
ENDTAB
  0
TABLE
  2
LTYPE
  5
5
330
0
100
AcDbSymbolTable
 70
     1
  0
LTYPE
  5
14
330
5
100
AcDbSymbolTableRecord
100
AcDbLinetypeTableRecord
  2
ByBlock
 70
     0
  3

 72
    65
 73
     0
 40
0.0
  0
LTYPE
  5
15
330
5
100
AcDbSymbolTableRecord
100
AcDbLinetypeTableRecord
  2
ByLayer
 70
     0
  3

 72
    65
 73
     0
 40
0.0
  0
LTYPE
  5
16
330
5
100
AcDbSymbolTableRecord
100
AcDbLinetypeTableRecord
  2
Continuous
 70
     0
  3
Solid line
 72
    65
 73
     0
 40
0.0
  0
ENDTAB
  0
TABLE
  2
LAYER
  5
2
330
0
100
AcDbSymbolTable
 70
     2
  0
LAYER
  5
10
330
2
100
AcDbSymbolTableRecord
100
AcDbLayerTableRecord
  2
0
 70
     0
 62
     7
  6
Continuous
370
    -3
390
F
  0
LAYER
  5
3B
330
2
100
AcDbSymbolTableRecord
100
AcDbLayerTableRecord
  2
Layer 1
 70
     0
 62
     7
  6
Continuous
370
    -3
390
F
  0
ENDTAB
  0
TABLE
  2
STYLE
  5
3
330
0
100
AcDbSymbolTable
 70
     1
  0
STYLE
  5
11
330
3
100
AcDbSymbolTableRecord
100
AcDbTextStyleTableRecord
  2
Standard
 70
     0
 40
0.0
 41
1.0
 50
0.0
 71
     0
 42
0.2
  3
txt
  4

  0
ENDTAB
  0
TABLE
  2
VIEW
  5
6
330
0
100
AcDbSymbolTable
 70
     0
  0
ENDTAB
  0
TABLE
  2
UCS
  5
7
330
0
100
AcDbSymbolTable
 70
     0
  0
ENDTAB
  0
TABLE
  2
APPID
  5
9
330
0
100
AcDbSymbolTable
 70
     1
  0
APPID
  5
12
330
9
100
AcDbSymbolTableRecord
100
AcDbRegAppTableRecord
  2
ACAD
 70
     0
  0
ENDTAB
  0
TABLE
  2
DIMSTYLE
  5
A
330
0
100
AcDbSymbolTable
 70
     1
100
AcDbDimStyleTable
  0
DIMSTYLE
105
27
330
A
100
AcDbSymbolTableRecord
100
AcDbDimStyleTableRecord
  2
Standard
 70
     0
340
11
  0
ENDTAB
  0
TABLE
  2
BLOCK_RECORD
  5
1
330
0
100
AcDbSymbolTable
 70
     2
  0
BLOCK_RECORD
  5
1F
330
1
100
AcDbSymbolTableRecord
100
AcDbBlockTableRecord
  2
*Model_Space
340
22
  0
BLOCK_RECORD
  5
1B
330
1
100
AcDbSymbolTableRecord
100
AcDbBlockTableRecord
  2
*Paper_Space
340
1E
  0
BLOCK_RECORD
  5
23
330
1
100
AcDbSymbolTableRecord
100
AcDbBlockTableRecord
  2
*Paper_Space0
340
26
  0
BLOCK_RECORD
  5
3C
330
1
100
AcDbSymbolTableRecord
100
AcDbBlockTableRecord
  2
block 2
340
0
102
{BLKREFS
331
3D
102
}
  0
ENDTAB
  0
ENDSEC
  0
SECTION
  2
BLOCKS
  0
BLOCK
  5
20
330
1F
100
AcDbEntity
  8
0
100
AcDbBlockBegin
  2
*Model_Space
 70
     0
 71
     0
 10
0.0
 20
0.0
 30
0.0
  3
*Model_Space
  1

  0
ENDBLK
  5
21
330
1F
100
AcDbEntity
  8
0
100
AcDbBlockEnd
  0
BLOCK
  5
1C
330
1B
100
AcDbEntity
 67
     1
  8
0
100
AcDbBlockBegin
  2
*Paper_Space
 70
     0
 71
     0
 10
0.0
 20
0.0
 30
0.0
  3
*Paper_Space
  1

  0
ENDBLK
  5
1D
330
1B
100
AcDbEntity
 67
     1
  8
0
100
AcDbBlockEnd
  0
BLOCK
  5
24
330
23
100
AcDbEntity
  8
0
100
AcDbBlockBegin
  2
*Paper_Space0
 70
     0
 71
     0
 10
0.0
 20
0.0
 30
0.0
  3
*Paper_Space0
  1

  0
ENDBLK
  5
25
330
23
100
AcDbEntity
  8
0
100
AcDbBlockEnd
  0
BLOCK
  5
3E
330
3C
100
AcDbEntity
  8
0
100
AcDbBlockBegin
  2
block 2
 70
     0
 71
     0
 10
0.0
 20
0.0
 30
0.0
  3
block 2
  1

  0
SPLINE
  5
40
330
3C
100
AcDbEntity
  8
Layer 1
 62
    18
420
    65793
370
    13
100
AcDbSpline
210
0.0
220
0.0
230
1.0
 70
    11
 71
     3
 72
   149
 73
   145
 74
     0
 42
0.0000000001
 43
0.0000000001
 40
0.0
 40
0.0
 40
0.0
 40
0.0
 40
1.0
 40
1.0
 40
1.0
 40
2.0
 40
2.0
 40
2.0
 40
3.0
 40
3.0
 40
3.0
 40
4.0
 40
4.0
 40
4.0
 40
5.0
 40
5.0
 40
5.0
 40
6.0
 40
6.0
 40
6.0
 40
7.0
 40
7.0
 40
7.0
 40
8.0
 40
8.0
 40
8.0
 40
9.0
 40
9.0
 40
9.0
 40
10.0
 40
10.0
 40
10.0
 40
11.0
 40
11.0
 40
11.0
 40
12.0
 40
12.0
 40
12.0
 40
13.0
 40
13.0
 40
13.0
 40
14.0
 40
14.0
 40
14.0
 40
15.0
 40
15.0
 40
15.0
 40
16.0
 40
16.0
 40
16.0
 40
17.0
 40
17.0
 40
17.0
 40
18.0
 40
18.0
 40
18.0
 40
19.0
 40
19.0
 40
19.0
 40
20.0
 40
20.0
 40
20.0
 40
21.0
 40
21.0
 40
21.0
 40
22.0
 40
22.0
 40
22.0
 40
23.0
 40
23.0
 40
23.0
 40
24.0
 40
24.0
 40
24.0
 40
25.0
 40
25.0
 40
25.0
 40
26.0
 40
26.0
 40
26.0
 40
27.0
 40
27.0
 40
27.0
 40
28.0
 40
28.0
 40
28.0
 40
29.0
 40
29.0
 40
29.0
 40
30.0
 40
30.0
 40
30.0
 40
31.0
 40
31.0
 40
31.0
 40
32.0
 40
32.0
 40
32.0
 40
33.0
 40
33.0
 40
33.0
 40
34.0
 40
34.0
 40
34.0
 40
35.0
 40
35.0
 40
35.0
 40
36.0
 40
36.0
 40
36.0
 40
37.0
 40
37.0
 40
37.0
 40
38.0
 40
38.0
 40
38.0
 40
39.0
 40
39.0
 40
39.0
 40
40.0
 40
40.0
 40
40.0
 40
41.0
 40
41.0
 40
41.0
 40
42.0
 40
42.0
 40
42.0
 40
43.0
 40
43.0
 40
43.0
 40
44.0
 40
44.0
 40
44.0
 40
45.0
 40
45.0
 40
45.0
 40
46.0
 40
46.0
 40
46.0
 40
47.0
 40
47.0
 40
47.0
 40
48.0
 40
48.0
 40
48.0
 40
48.0
 10
110.0329047033945
 20
-82.19773896599571
 30
0.0
 10
112.6039794640365
 20
-82.39738224936593
 30
0.0
 10
114.9562906613651
 20
-81.20176186120997
 30
0.0
 10
115.5808864728409
 20
-78.18437498045391
 30
0.0
 10
116.1562174188776
 20
-75.4009100831463
 30
0.0
 10
113.1503716079971
 20
-74.01959904833538
 30
0.0
 10
111.8791313739399
 20
-74.59837508985736
 30
0.0
 10
110.9172607144582
 20
-75.03521319738704
 30
0.0
 10
110.4924804411269
 20
-76.16916637635701
 30
0.0
 10
110.9310410963992
 20
-77.1308647810645
 30
0.0
 10
111.3668456752833
 20
-78.09273544054626
 30
0.0
 10
112.5023491472216
 20
-78.51923826162019
 30
0.0
 10
113.4635307876063
 20
-78.078782803831
 30
0.0
 10
113.5830756009445
 20
-78.02658960722947
 30
0.0
 10
113.6912515991814
 20
-77.96182181210678
 30
0.0
 10
113.7928819159962
 20
-77.88895804259374
 30
0.0
 10
113.4890244941972
 20
-81.41845836723219
 30
0.0
 10
107.4087754722798
 20
-80.43970673987272
 30
0.0
 10
105.1484483244073
 20
-75.46912297375425
 30
0.0
 10
103.8096842188393
 20
-72.53045652483614
 30
0.0
 10
105.7661539449126
 20
-68.18222925812806
 30
0.0
 10
108.4867458496144
 20
-66.943889685955
 30
0.0
 10
110.2992105844044
 20
-66.1191338267862
 30
0.0
 10
112.3841823720776
 20
-66.06728513973319
 30
0.0
 10
114.4574408351009
 20
-66.5659627112231
 30
0.0
 10
119.7246473224994
 20
-67.81928844875699
 30
0.0
 10
124.9277750338722
 20
-72.59419079131327
 30
0.0
 10
125.476234235124
 20
-77.17306720075882
 30
0.0
 10
126.2034938920602
 20
-83.26347925435775
 30
0.0
 10
123.3705918745393
 20
-88.75427243874894
 30
0.0
 10
121.166764292625
 20
-94.2474771899798
 30
0.0
 10
119.0804144667577
 20
-99.44440372947918
 30
0.0
 10
117.5566487336317
 20
-104.643569581044
 30
0.0
 10
120.1521836722189
 20
-110.348819959392
 30
0.0
 10
121.7035101692269
 20
-113.7610147827577
 30
0.0
 10
124.097507021927
 20
-116.0818033563962
 30
0.0
 10
126.7967393346203
 20
-117.4772392826967
 30
0.0
 10
130.2942002712459
 20
-119.2829860812904
 30
0.0
 10
134.3056694542708
 20
-119.5372341281018
 30
0.0
 10
137.6808295011701
 20
-118.5824259143648
 30
0.0
 10
140.3094373564157
 20
-117.8400078372935
 30
0.0
 10
144.6950439091387
 20
-116.1660359410106
 30
0.0
 10
144.3085041956937
 20
-115.3180256873163
 30
0.0
 10
143.9236870299913
 20
-114.4694986692993
 30
0.0
 10
139.2280218835958
 20
-116.126934107253
 30
0.0
 10
137.0837944535763
 20
-116.4330308411174
 30
0.0
 10
132.5820881830003
 20
-117.0743353656967
 30
0.0
 10
128.6750053931785
 20
-116.0123846823684
 30
0.0
 10
125.6736382064288
 20
-112.8428968359386
 30
0.0
 10
125.44212778982
 20
-112.5991563303572
 30
0.0
 10
125.2164740355362
 20
-112.3468030860626
 30
0.0
 10
124.9952989053831
 20
-112.0791191668587
 30
0.0
 10
124.2549478856029
 20
-111.173748073335
 30
0.0
 10
123.2169406158972
 20
-109.8315388722817
 30
0.0
 10
123.1128987322426
 20
-108.2368041721596
 30
0.0
 10
123.0477864275714
 20
-107.457523573396
 30
0.0
 10
123.5363009673798
 20
-106.4448377555069
 30
0.0
 10
123.9121608848206
 20
-105.5765014384496
 30
0.0
 10
125.2464463662578
 20
-102.506232341995
 30
0.0
 10
127.799951139925
 20
-99.90225691946888
 30
0.0
 10
129.6764946507406
 20
-100.3110174987938
 30
0.0
 10
132.1769449539349
 20
-100.8532755281721
 30
0.0
 10
130.2721516601403
 20
-106.126683187444
 30
0.0
 10
132.378483039822
 20
-105.740143473999
 30
0.0
 10
135.3388535902972
 20
-105.2137328838528
 30
0.0
 10
136.7733913503553
 20
-101.8542480214114
 30
0.0
 10
134.1647650489241
 20
-99.75446232315167
 30
0.0
 10
132.9689724059939
 20
-98.79362519231549
 30
0.0
 10
131.281909146867
 20
-98.74453258165067
 30
0.0
 10
130.199115635853
 20
-99.13055553077292
 30
0.0
 10
128.3029350807715
 20
-99.8066555197532
 30
0.0
 10
128.7439073028835
 20
-99.23339163100763
 30
0.0
 10
128.7439073028835
 20
-99.23339163100763
 30
0.0
 10
130.4109890081959
 20
-96.95670027958028
 30
0.0
 10
137.3187499656703
 20
-96.55241832438621
 30
0.0
 10
141.3567463839317
 20
-100.6880831996544
 30
0.0
 10
144.6326876808557
 20
-106.4296793353717
 30
0.0
 10
141.5376138969073
 20
-111.362711560701
 30
0.0
 10
138.3426323438866
 20
-110.4528618430465
 30
0.0
 10
136.790272318233
 20
-110.0089612897721
 30
0.0
 10
136.3751383122604
 20
-108.5115505371082
 30
0.0
 10
136.4902045014677
 20
-107.8018608671468
 30
0.0
 10
137.0510660464664
 20
-107.8666286622695
 30
0.0
 10
137.6067599482372
 20
-107.5415839032361
 30
0.0
 10
137.8079535245758
 20
-106.9857177466911
 30
0.0
 10
138.0391194316361
 20
-106.3342501904303
 30
0.0
 10
137.7021890931786
 20
-105.6204264058866
 30
0.0
 10
137.0538221228546
 20
-105.3882269701807
 30
0.0
 10
135.8435600788863
 20
-104.9525946460709
 30
0.0
 10
135.1118217978193
 20
-106.1936902946321
 30
0.0
 10
134.9829752266709
 20
-107.4540784779108
 30
0.0
 10
134.7294161989565
 20
-109.9097425397969
 30
0.0
 10
136.2831542628042
 20
-111.4398816995706
 30
0.0
 10
137.982619865678
 20
-112.0510416386539
 30
0.0
 10
140.0076469919078
 20
-112.7807128624298
 30
0.0
 10
142.2283555416999
 20
-111.3242987460405
 30
0.0
 10
143.3635145040897
 20
-109.0653496363621
 30
0.0
 10
144.5596516565684
 20
-106.6899562992824
 30
0.0
 10
144.9785752675748
 20
-103.2545070813912
 30
0.0
 10
143.6088053026395
 20
-101.1841769495304
 30
0.0
 10
141.0177489881831
 20
-97.270203968738
 30
0.0
 10
137.2760307816532
 20
-96.01067705933067
 30
0.0
 10
133.7410183042384
 20
-96.22478974373895
 30
0.0
 10
129.9941324544806
 20
-96.45423310305658
 30
0.0
 10
126.358867698445
 20
-98.66408960207009
 30
0.0
 10
124.1963812623537
 20
-102.1532823095311
 30
0.0
 10
124.6990206936516
 20
-97.64813094346992
 30
0.0
 10
128.0221597987236
 20
-96.70761987599671
 30
0.0
 10
130.4419948675631
 20
-94.78784041684123
 30
0.0
 10
132.8924912862213
 20
-94.47399221813498
 30
0.0
 10
134.1733777876372
 20
-92.43018932151051
 30
0.0
 10
134.2708739898698
 20
-90.32764754686254
 30
0.0
 10
133.9866536123367
 20
-89.71803790074758
 30
0.0
 10
132.0835828662847
 20
-90.37174476907373
 30
0.0
 10
130.902604133941
 20
-91.3225911230027
 30
0.0
 10
131.4176459089859
 20
-90.24289819792538
 30
0.0
 10
131.8775661562667
 20
-88.17687443542107
 30
0.0
 10
131.4183349280829
 20
-87.09304739576146
 30
0.0
 10
126.9786403762415
 20
-88.56772051822266
 30
0.0
 10
128.2054388785389
 20
-92.07810056291798
 30
0.0
 10
129.185913053641
 20
-94.30845538006872
 30
0.0
 10
126.413989226209
 20
-95.75022784064578
 30
0.0
 10
124.39344072411
 20
-97.02853052044773
 30
0.0
 10
122.8862114493132
 20
-100.6755086011332
 30
0.0
 10
122.5110405509695
 20
-95.2059027539763
 30
0.0
 10
127.7145127718908
 20
-84.18159720117683
 30
0.0
 10
127.6263183274684
 20
-78.65480276896477
 30
0.0
 10
127.3486436313573
 20
-70.77810870626381
 30
0.0
 10
124.641487599048
 20
-66.27261283065407
 30
0.0
 10
118.6487440024559
 20
-60.6889743229354
 30
0.0
 10
118.6001681561139
 20
-60.76976181206451
 30
0.0
 10
119.015646671635
 20
-63.47140569159743
 30
0.0
 10
118.7066216066081
 20
-64.99965004885426
 30
0.0
 10
117.1018961295787
 20
-64.30494654425362
 30
0.0
 10
115.4193114945827
 20
-63.85605060252557
 30
0.0
 10
113.7608425279834
 20
-63.6832790639403
 30
0.0
 10
113.7608425279834
 20
-63.6832790639403
 30
0.0
 10
113.7615315470805
 20
-63.68569063077997
 30
0.0
 10
113.7615315470805
 20
-63.68569063077997
 30
0.0
 10
108.107785346237
 20
-63.09502900983389
 30
0.0
 10
102.7723659682305
 20
-65.73845077566608
 30
0.0
 10
102.0936821576363
 20
-72.96143797004089
 30
0.0
 10
101.592765274081
 20
-78.29840764101569
 30
0.0
 10
106.0724229335513
 20
-81.90025497084439
 30
0.0
 10
110.0329047033945
 20
-82.19773896599571
 30
0.0
  0
SPLINE
  5
41
330
3C
100
AcDbEntity
  8
Layer 1
 62
    18
420
    65793
370
    13
100
AcDbSpline
210
0.0
220
0.0
230
1.0
 70
    11
 71
     3
 72
   161
 73
   157
 74
     0
 42
0.0000000001
 43
0.0000000001
 40
0.0
 40
0.0
 40
0.0
 40
0.0
 40
1.0
 40
1.0
 40
1.0
 40
2.0
 40
2.0
 40
2.0
 40
3.0
 40
3.0
 40
3.0
 40
4.0
 40
4.0
 40
4.0
 40
5.0
 40
5.0
 40
5.0
 40
6.0
 40
6.0
 40
6.0
 40
7.0
 40
7.0
 40
7.0
 40
8.0
 40
8.0
 40
8.0
 40
9.0
 40
9.0
 40
9.0
 40
10.0
 40
10.0
 40
10.0
 40
11.0
 40
11.0
 40
11.0
 40
12.0
 40
12.0
 40
12.0
 40
13.0
 40
13.0
 40
13.0
 40
14.0
 40
14.0
 40
14.0
 40
15.0
 40
15.0
 40
15.0
 40
16.0
 40
16.0
 40
16.0
 40
17.0
 40
17.0
 40
17.0
 40
18.0
 40
18.0
 40
18.0
 40
19.0
 40
19.0
 40
19.0
 40
20.0
 40
20.0
 40
20.0
 40
21.0
 40
21.0
 40
21.0
 40
22.0
 40
22.0
 40
22.0
 40
23.0
 40
23.0
 40
23.0
 40
24.0
 40
24.0
 40
24.0
 40
25.0
 40
25.0
 40
25.0
 40
26.0
 40
26.0
 40
26.0
 40
27.0
 40
27.0
 40
27.0
 40
28.0
 40
28.0
 40
28.0
 40
29.0
 40
29.0
 40
29.0
 40
30.0
 40
30.0
 40
30.0
 40
31.0
 40
31.0
 40
31.0
 40
32.0
 40
32.0
 40
32.0
 40
33.0
 40
33.0
 40
33.0
 40
34.0
 40
34.0
 40
34.0
 40
35.0
 40
35.0
 40
35.0
 40
36.0
 40
36.0
 40
36.0
 40
37.0
 40
37.0
 40
37.0
 40
38.0
 40
38.0
 40
38.0
 40
39.0
 40
39.0
 40
39.0
 40
40.0
 40
40.0
 40
40.0
 40
41.0
 40
41.0
 40
41.0
 40
42.0
 40
42.0
 40
42.0
 40
43.0
 40
43.0
 40
43.0
 40
44.0
 40
44.0
 40
44.0
 40
45.0
 40
45.0
 40
45.0
 40
46.0
 40
46.0
 40
46.0
 40
47.0
 40
47.0
 40
47.0
 40
48.0
 40
48.0
 40
48.0
 40
49.0
 40
49.0
 40
49.0
 40
50.0
 40
50.0
 40
50.0
 40
51.0
 40
51.0
 40
51.0
 40
52.0
 40
52.0
 40
52.0
 40
52.0
 10
147.2892008095319
 20
-173.5925048394144
 30
0.0
 10
147.2892008095319
 20
-173.5925048394144
 30
0.0
 10
145.3268744211336
 20
-170.6193874356438
 30
0.0
 10
145.3268744211336
 20
-170.6193874356438
 30
0.0
 10
145.3561577327582
 20
-171.3349337679302
 30
0.0
 10
145.2472927154243
 20
-172.0811414500353
 30
0.0
 10
144.9995903500348
 20
-172.815291297942
 30
0.0
 10
142.7089463618922
 20
-179.6062635184665
 30
0.0
 10
126.6947645082569
 20
-177.8916394954577
 30
0.0
 10
117.7850585643037
 20
-175.9441270176459
 30
0.0
 10
118.699386906089
 20
-172.918299652951
 30
0.0
 10
119.1090087592853
 20
-170.1191595711855
 30
0.0
 10
118.0396511206637
 20
-170.1136474184091
 30
0.0
 10
116.8886447190417
 20
-170.1067572274386
 30
0.0
 10
115.4554849971778
 20
-177.2990830719947
 30
0.0
 10
112.6873507747796
 20
-180.8661349374224
 30
0.0
 10
111.4612412915791
 20
-182.446744746055
 30
0.0
 10
109.949188883103
 20
-183.8268499974461
 30
0.0
 10
108.2721164008834
 20
-185.0126518634691
 30
0.0
 10
108.34997555885
 20
-184.6385144937709
 30
0.0
 10
108.3823594564114
 20
-184.2536973280685
 30
0.0
 10
108.3771918131835
 20
-183.8626789904927
 30
0.0
 10
108.3089789225755
 20
-180.3872666649726
 30
0.0
 10
105.791303141955
 20
-177.7720946821195
 30
0.0
 10
101.7632975006008
 20
-178.0725070084333
 30
0.0
 10
99.56670461920555
 20
-178.23442649624
 30
0.0
 10
98.68441566543306
 20
-180.1936522987016
 30
0.0
 10
99.05648597784005
 20
-181.2047878236224
 30
0.0
 10
99.13882375993752
 20
-182.0112846767194
 30
0.0
 10
99.82439776150224
 20
-182.6300238258703
 30
0.0
 10
100.6457085251858
 20
-182.6165879534778
 30
0.0
 10
101.5228298357304
 20
-182.6014295333427
 30
0.0
 10
102.2173610855568
 20
-181.8786485005373
 30
0.0
 10
102.199791098582
 20
-181.0066948332206
 30
0.0
 10
102.1922118885144
 20
-180.7031819209701
 30
0.0
 10
102.1009168581553
 20
-180.4306748680868
 30
0.0
 10
101.9482991281588
 20
-180.1929632796046
 30
0.0
 10
102.2938422053293
 20
-180.0710068994267
 30
0.0
 10
102.7203450264033
 20
-180.0048610661099
 30
0.0
 10
103.2836181382416
 20
-180.0524033838064
 30
0.0
 10
105.3176025127331
 20
-180.220179533938
 30
0.0
 10
106.4865234108784
 20
-181.9127549458413
 30
0.0
 10
106.522352403925
 20
-183.8978189644422
 30
0.0
 10
106.5475016009673
 20
-184.964076017127
 30
0.0
 10
106.1037733024671
 20
-185.9380045108072
 30
0.0
 10
105.3317274042226
 20
-186.8144368022547
 30
0.0
 10
105.2094265144963
 20
-186.8778265591833
 30
0.0
 10
105.0833360197361
 20
-186.9501735643736
 30
0.0
 10
104.9575900345245
 20
-187.0135633213022
 30
0.0
 10
102.6838270142596
 20
-188.1749050093799
 30
0.0
 10
100.2216172709515
 20
-189.0261881037851
 30
0.0
 10
97.65743270128009
 20
-189.5036783380407
 30
0.0
 10
95.52560761500749
 20
-189.2993841757655
 30
0.0
 10
93.39309350963784
 20
-189.4392550524666
 30
0.0
 10
91.34153914817156
 20
-189.8495659247598
 30
0.0
 10
84.45031464902631
 20
-191.2286376475053
 30
0.0
 10
78.27463648216745
 20
-196.2477972599658
 30
0.0
 10
75.15613604891931
 20
-203.2633897061286
 30
0.0
 10
74.93806150470299
 20
-194.7815646214435
 30
0.0
 10
80.86465926797828
 20
-192.1967094788606
 30
0.0
 10
84.86028101177105
 20
-188.0222872793833
 30
0.0
 10
89.32546927020336
 20
-186.8154703309003
 30
0.0
 10
91.17893064126777
 20
-182.7023708310605
 30
0.0
 10
90.82718639222377
 20
-178.7753064874242
 30
0.0
 10
90.14057886201347
 20
-177.724552364423
 30
0.0
 10
86.78264429254045
 20
-179.4191948336174
 30
0.0
 10
84.83409828608315
 20
-181.4803954624424
 30
0.0
 10
85.51691621125967
 20
-179.3506374334609
 30
0.0
 10
85.84316675371282
 20
-175.4018689882676
 30
0.0
 10
84.72109915416695
 20
-173.510856076414
 30
0.0
 10
76.85801321863272
 20
-177.3741861535731
 30
0.0
 10
80.02681204596553
 20
-183.5677788169553
 30
0.0
 10
82.4094400835643
 20
-187.4538465243171
 30
0.0
 10
75.75007051057638
 20
-192.1608804858139
 30
0.0
 10
68.80682506960385
 20
-203.2189479743689
 30
0.0
 10
73.17555065444917
 20
-213.8487900941072
 30
0.0
 10
75.72113170850028
 20
-204.9204806345338
 30
0.0
 10
80.06953122998262
 20
-198.0881672681863
 30
0.0
 10
84.84477808208742
 20
-198.4581705233021
 30
0.0
 10
89.61726885780402
 20
-198.8257622115783
 30
0.0
 10
87.69697263432576
 20
-205.8079372315341
 30
0.0
 10
91.23680824541997
 20
-207.8364094532492
 30
0.0
 10
96.58566349581886
 20
-206.1062825005568
 30
0.0
 10
98.3967501924147
 20
-199.5158148372738
 30
0.0
 10
93.01998966858528
 20
-196.283970762561
 30
0.0
 10
89.92939450876766
 20
-194.4239637100746
 30
0.0
 10
86.95386553815737
 20
-195.2242593912981
 30
0.0
 10
81.65875377732837
 20
-198.1415662482077
 30
0.0
 10
84.32181258742649
 20
-193.3711425297822
 30
0.0
 10
98.66615665936125
 20
-189.4960991279732
 30
0.0
 10
103.6363959159312
 20
-194.3822780547031
 30
0.0
 10
101.5720947011695
 20
-196.9543863439906
 30
0.0
 10
100.3401285556441
 20
-200.9076334133148
 30
0.0
 10
105.0395833070734
 20
-206.0139539415521
 30
0.0
 10
108.1611843262583
 20
-202.3704209563518
 30
0.0
 10
107.7708550077795
 20
-199.1843966515928
 30
0.0
 10
106.226418701742
 20
-195.6728108234776
 30
0.0
 10
115.0937499712266
 20
-205.2494872533752
 30
0.0
 10
109.6436089135613
 20
-215.9282497290041
 30
0.0
 10
103.4861897527743
 20
-215.0504393993624
 30
0.0
 10
100.5027370625479
 20
-214.6253146164826
 30
0.0
 10
99.34690752724661
 20
-211.956743653608
 30
0.0
 10
99.3772243675168
 20
-210.6100558284239
 30
0.0
 10
100.4334906432944
 20
-210.5886962364153
 30
0.0
 10
101.3808919017381
 20
-209.846278159344
 30
0.0
 10
101.6113687897013
 20
-208.7621066101359
 30
0.0
 10
101.8838758425846
 20
-207.5008571529859
 30
0.0
 10
101.0722113462597
 20
-206.260622778296
 30
0.0
 10
99.81337345594945
 20
-205.9939723877376
 30
0.0
 10
97.46002872997528
 20
-205.4944335423764
 30
0.0
 10
96.4165093074931
 20
-207.9817924827268
 30
0.0
 10
96.49609101320237
 20
-210.3489175906419
 30
0.0
 10
96.65180932913566
 20
-214.969479655459
 30
0.0
 10
99.92499454967154
 20
-217.4110188258556
 30
0.0
 10
103.2264295531864
 20
-218.1110622284584
 30
0.0
 10
107.1696858456034
 20
-218.9489094504711
 30
0.0
 10
110.9117485616818
 20
-215.6850259877454
 30
0.0
 10
112.4437825239724
 20
-211.203990290081
 30
0.0
 10
114.0553981919723
 20
-206.5014349527149
 30
0.0
 10
113.9616915947735
 20
-200.0246554404452
 30
0.0
 10
110.8952121033526
 20
-196.5361517520813
 30
0.0
 10
108.6028455674674
 20
-193.9278699601986
 30
0.0
 10
106.0848252772982
 20
-192.1484781420671
 30
0.0
 10
103.4779215236097
 20
-191.0126301605802
 30
0.0
 10
104.4680419660705
 20
-190.6223008421014
 30
0.0
 10
105.4299126255522
 20
-190.1775390149556
 30
0.0
 10
106.3562988015359
 20
-189.6721435072695
 30
0.0
 10
109.6794379066079
 20
-187.8965412941717
 30
0.0
 10
112.7379936784127
 20
-185.6076198537717
 30
0.0
 10
114.8711968028794
 20
-182.687556920474
 30
0.0
 10
115.4317138383296
 20
-181.9172335699721
 30
0.0
 10
116.0845594327844
 20
-180.5826035789863
 30
0.0
 10
116.6933078050281
 20
-179.0584933363118
 30
0.0
 10
120.3819715410851
 20
-179.764737910788
 30
0.0
 10
124.7975504245298
 20
-180.3218098507529
 30
0.0
 10
129.1245903540036
 20
-180.4100042951753
 30
0.0
 10
129.5025173287355
 20
-180.874403166587
 30
0.0
 10
129.8528835395854
 20
-181.4173502150623
 30
0.0
 10
130.158463509127
 20
-182.060894051707
 30
0.0
 10
123.9500569351583
 20
-187.8607123011251
 30
0.0
 10
128.9964328019523
 20
-193.1361870176882
 30
0.0
 10
123.4532741661853
 20
-195.7799532930689
 30
0.0
 10
121.4675211284873
 20
-196.7273545515126
 30
0.0
 10
119.3735920925524
 20
-196.3005072208902
 30
0.0
 10
117.665169241417
 20
-195.83576383993
 30
0.0
 10
119.3077907687842
 20
-199.6071098676329
 30
0.0
 10
122.0628336283385
 20
-200.227916074075
 30
0.0
 10
125.7756130327922
 20
-198.3031412264659
 30
0.0
 10
125.8162651595182
 20
-198.7623724546497
 30
0.0
 10
125.9220295909153
 20
-200.1410996678467
 30
0.0
 10
126.0098795257892
 20
-201.1512016641219
 30
0.0
 10
134.3797390072037
 20
-196.6253797251492
 30
0.0
 10
135.8501057603083
 20
-187.1248399054757
 30
0.0
 10
130.5946125975597
 20
-180.419650562534
 30
0.0
 10
138.3746717318994
 20
-180.3827880408418
 30
0.0
 10
145.5566622899997
 20
-178.7181179023691
 30
0.0
 10
147.2892008095319
 20
-173.5925048394144
 30
0.0
  0
SPLINE
  5
42
330
3C
100
AcDbEntity
  8
Layer 1
 62
    18
420
    65793
370
    13
100
AcDbSpline
210
0.0
220
0.0
230
1.0
 70
    11
 71
     3
 72
   170
 73
   166
 74
     0
 42
0.0000000001
 43
0.0000000001
 40
0.0
 40
0.0
 40
0.0
 40
0.0
 40
1.0
 40
1.0
 40
1.0
 40
2.0
 40
2.0
 40
2.0
 40
3.0
 40
3.0
 40
3.0
 40
4.0
 40
4.0
 40
4.0
 40
5.0
 40
5.0
 40
5.0
 40
6.0
 40
6.0
 40
6.0
 40
7.0
 40
7.0
 40
7.0
 40
8.0
 40
8.0
 40
8.0
 40
9.0
 40
9.0
 40
9.0
 40
10.0
 40
10.0
 40
10.0
 40
11.0
 40
11.0
 40
11.0
 40
12.0
 40
12.0
 40
12.0
 40
13.0
 40
13.0
 40
13.0
 40
14.0
 40
14.0
 40
14.0
 40
15.0
 40
15.0
 40
15.0
 40
16.0
 40
16.0
 40
16.0
 40
17.0
 40
17.0
 40
17.0
 40
18.0
 40
18.0
 40
18.0
 40
19.0
 40
19.0
 40
19.0
 40
20.0
 40
20.0
 40
20.0
 40
21.0
 40
21.0
 40
21.0
 40
22.0
 40
22.0
 40
22.0
 40
23.0
 40
23.0
 40
23.0
 40
24.0
 40
24.0
 40
24.0
 40
25.0
 40
25.0
 40
25.0
 40
26.0
 40
26.0
 40
26.0
 40
27.0
 40
27.0
 40
27.0
 40
28.0
 40
28.0
 40
28.0
 40
29.0
 40
29.0
 40
29.0
 40
30.0
 40
30.0
 40
30.0
 40
31.0
 40
31.0
 40
31.0
 40
32.0
 40
32.0
 40
32.0
 40
33.0
 40
33.0
 40
33.0
 40
34.0
 40
34.0
 40
34.0
 40
35.0
 40
35.0
 40
35.0
 40
36.0
 40
36.0
 40
36.0
 40
37.0
 40
37.0
 40
37.0
 40
38.0
 40
38.0
 40
38.0
 40
39.0
 40
39.0
 40
39.0
 40
40.0
 40
40.0
 40
40.0
 40
41.0
 40
41.0
 40
41.0
 40
42.0
 40
42.0
 40
42.0
 40
43.0
 40
43.0
 40
43.0
 40
44.0
 40
44.0
 40
44.0
 40
45.0
 40
45.0
 40
45.0
 40
46.0
 40
46.0
 40
46.0
 40
47.0
 40
47.0
 40
47.0
 40
48.0
 40
48.0
 40
48.0
 40
49.0
 40
49.0
 40
49.0
 40
50.0
 40
50.0
 40
50.0
 40
51.0
 40
51.0
 40
51.0
 40
52.0
 40
52.0
 40
52.0
 40
53.0
 40
53.0
 40
53.0
 40
54.0
 40
54.0
 40
54.0
 40
55.0
 40
55.0
 40
55.0
 40
55.0
 10
92.18696558025188
 20
-170.6583170146271
 30
0.0
 10
93.32694767632104
 20
-171.8930392365406
 30
0.0
 10
95.09324813160863
 20
-172.5138454429827
 30
0.0
 10
97.03628198528955
 20
-171.470670530049
 30
0.0
 10
97.95750051804535
 20
-170.980433442498
 30
0.0
 10
98.18763289646004
 20
-170.5487629781962
 30
0.0
 10
98.4739203312843
 20
-169.5937825096849
 30
0.0
 10
98.85494789195293
 20
-168.6250216592326
 30
0.0
 10
98.63067217586317
 20
-167.9484049059296
 30
0.0
 10
98.03914928104577
 20
-167.4530001751506
 30
0.0
 10
97.97541501456865
 20
-167.3944335519014
 30
0.0
 10
97.90892467170333
 20
-167.3396565336859
 30
0.0
 10
97.83175453283373
 20
-167.2969373496688
 30
0.0
 10
97.70049639484571
 20
-167.2077093766009
 30
0.0
 10
97.26159123002489
 20
-167.0871310346171
 30
0.0
 10
97.19062226302874
 20
-167.1098686648198
 30
0.0
 10
97.0521294245217
 20
-167.1067680788831
 30
0.0
 10
96.90950247143235
 20
-167.1181368939844
 30
0.0
 10
96.77307669021646
 20
-167.16120058755
 30
0.0
 10
96.07578936400189
 20
-167.3754855267325
 30
0.0
 10
95.68856063145981
 20
-168.1096353746393
 30
0.0
 10
95.90043400380267
 20
-168.8038221149171
 30
0.0
 10
95.90319008019087
 20
-168.816224458664
 30
0.0
 10
96.20945906882959
 20
-169.60894092982
 30
0.0
 10
95.51079370442092
 20
-169.8232258690025
 30
0.0
 10
95.02675778874331
 20
-169.9710204653198
 30
0.0
 10
94.45383840954626
 20
-169.3316107432574
 30
0.0
 10
94.1744411656925
 20
-168.4196939683117
 30
0.0
 10
94.03112519350611
 20
-167.946682358187
 30
0.0
 10
94.15308157368396
 20
-166.0615261086582
 30
0.0
 10
95.43913571832772
 20
-165.6691297328883
 30
0.0
 10
103.006976970776
 20
-163.3481689044755
 30
0.0
 10
109.1547498642044
 20
-179.7051377588932
 30
0.0
 10
117.8405246016163
 20
-168.7021917981022
 30
0.0
 10
131.2016384220607
 20
-172.9486164932212
 30
0.0
 10
127.1326361444321
 20
-155.956716540872
 30
0.0
 10
134.6977213204922
 20
-153.6388562983958
 30
0.0
 10
135.9799858601022
 20
-153.2461154130774
 30
0.0
 10
137.1409830386314
 20
-154.7354301913509
 30
0.0
 10
137.287055087206
 20
-155.2077527823786
 30
0.0
 10
137.563351745123
 20
-156.1189805382272
 30
0.0
 10
137.4462184986246
 20
-156.9719861803751
 30
0.0
 10
136.9639051306896
 20
-157.1190917575952
 30
0.0
 10
136.2673068235721
 20
-157.3347547349719
 30
0.0
 10
136.0712808904614
 20
-156.5055202516722
 30
0.0
 10
136.0705918713643
 20
-156.4958739843135
 30
0.0
 10
135.8563069321818
 20
-155.7999646962931
 30
0.0
 10
135.1218125747265
 20
-155.412735963751
 30
0.0
 10
134.4290038726428
 20
-155.6232312978998
 30
0.0
 10
134.2901665245872
 20
-155.6645724437228
 30
0.0
 10
134.1661430871182
 20
-155.7334743534277
 30
0.0
 10
134.0524549361049
 20
-155.8140895877826
 30
0.0
 10
133.9814859691088
 20
-155.8357936893397
 30
0.0
 10
133.6821071714406
 20
-156.1809922569617
 30
0.0
 10
133.625952115031
 20
-156.3298203819245
 30
0.0
 10
133.5884005742418
 20
-156.4100911067308
 30
0.0
 10
133.5604953008113
 20
-156.4879502646975
 30
0.0
 10
133.5405137469968
 20
-156.5740776518287
 30
0.0
 10
133.3272623364599
 20
-157.315117690706
 30
0.0
 10
133.5246663077647
 20
-157.998969144528
 30
0.0
 10
134.3821505740434
 20
-158.5932481157336
 30
0.0
 10
135.1538519627393
 20
-159.218877455855
 30
0.0
 10
135.58345536975
 20
-159.4462537578815
 30
0.0
 10
136.6290418495233
 20
-159.3418673646784
 30
0.0
 10
138.8170219922055
 20
-159.114491062652
 30
0.0
 10
139.9328884198779
 20
-157.6086398260492
 30
0.0
 10
140.188859014432
 20
-155.9446587066736
 30
0.0
 10
140.8344699083678
 20
-151.7340630046012
 30
0.0
 10
137.0321180212975
 20
-150.1134900883397
 30
0.0
 10
134.4104003570224
 20
-150.2392360735513
 30
0.0
 10
134.5351128135885
 20
-148.7626681485732
 30
0.0
 10
134.7879828222058
 20
-147.3470784136841
 30
0.0
 10
134.3566568674525
 20
-145.3658040001169
 30
0.0
 10
126.1304578677729
 20
-148.9032280443714
 30
0.0
 10
128.3608126849237
 20
-159.0597140444365
 30
0.0
 10
123.8708197389976
 20
-164.3978894988311
 30
0.0
 10
126.1166774858319
 20
-159.314651110345
 30
0.0
 10
125.6085259017576
 20
-152.7059244409902
 30
0.0
 10
128.0521321294453
 20
-147.083873118611
 30
0.0
 10
127.675238683359
 20
-146.9522704710744
 30
0.0
 10
126.8001844301055
 20
-147.3708495725323
 30
0.0
 10
126.4739338876524
 20
-147.5682535438371
 30
0.0
 10
126.7061333233582
 20
-144.6826415653918
 30
0.0
 10
128.3973306970673
 20
-144.0883625941862
 30
0.0
 10
130.3806721679257
 20
-144.360525137521
 30
0.0
 10
129.4308593426423
 20
-142.9652614659948
 30
0.0
 10
128.3466877934342
 20
-142.7168700815083
 30
0.0
 10
126.7636664179619
 20
-142.8801676075091
 30
0.0
 10
124.0913058500536
 20
-143.1481960362616
 30
0.0
 10
123.1139322608882
 20
-146.4131130276328
 30
0.0
 10
122.483824296636
 20
-150.4283718156915
 30
0.0
 10
122.3749592793021
 20
-150.2516384172982
 30
0.0
 10
122.2671277906138
 20
-150.0745605093564
 30
0.0
 10
122.1424153340477
 20
-149.9023057350939
 30
0.0
 10
118.5794975832024
 20
-144.9816758535115
 30
0.0
 10
115.6022460648494
 20
-143.368337637769
 30
0.0
 10
110.9465440260828
 20
-144.2692301071619
 30
0.0
 10
113.1283229968915
 20
-144.7143364438562
 30
0.0
 10
116.1758544631435
 20
-146.1368163697158
 30
0.0
 10
116.4039197842671
 20
-149.1543755052461
 30
0.0
 10
114.6696587169923
 20
-149.2460150451538
 30
0.0
 10
113.4893690037457
 20
-149.2945908914958
 30
0.0
 10
112.0258924416116
 20
-150.7353298234273
 30
0.0
 10
110.8263101936476
 20
-151.9166530653195
 30
0.0
 10
110.9958088915219
 20
-153.9812987896297
 30
0.0
 10
112.1509494077262
 20
-155.7169378950985
 30
0.0
 10
113.0356499283383
 20
-153.7956081429747
 30
0.0
 10
115.4692653791188
 20
-153.5472167584882
 30
0.0
 10
117.2186848665287
 20
-154.0915418451577
 30
0.0
 10
119.3456868191219
 20
-154.7516221401316
 30
0.0
 10
120.5845431556178
 20
-156.9478705119783
 30
0.0
 10
120.8332790496528
 20
-159.1420518265339
 30
0.0
 10
121.0506645747721
 20
-161.0778509796958
 30
0.0
 10
120.3802489933424
 20
-162.9981472031741
 30
0.0
 10
117.3682020105885
 20
-163.9238443600607
 30
0.0
 10
115.0592990163741
 20
-164.6321559918281
 30
0.0
 10
113.1927462824657
 20
-163.425339043345
 30
0.0
 10
112.879931612405
 20
-162.4100694038419
 30
0.0
 10
111.9583685701007
 20
-159.4011230070247
 30
0.0
 10
116.0952392287887
 20
-159.4369520000713
 30
0.0
 10
117.0195583474812
 20
-161.1650118954726
 30
0.0
 10
117.6362304393409
 20
-159.6677733975831
 30
0.0
 10
117.429524710226
 20
-158.2215223128752
 30
0.0
 10
115.8010280743484
 20
-157.1490640883169
 30
0.0
 10
113.3932508397072
 20
-155.6759412588241
 30
0.0
 10
111.5583929842632
 20
-157.0064371352276
 30
0.0
 10
110.156583631315
 20
-157.8863145221604
 30
0.0
 10
108.3541096734323
 20
-155.1540092928087
 30
0.0
 10
107.4404703507441
 20
-150.9537488771921
 30
0.0
 10
108.5060383843318
 20
-149.4048339470238
 30
0.0
 10
109.7986382103976
 20
-147.5241563216259
 30
0.0
 10
112.7266248633114
 20
-147.4070230751274
 30
0.0
 10
113.4414821765007
 20
-148.4815483569768
 30
0.0
 10
113.9031249715242
 20
-148.1277370506417
 30
0.0
 10
113.4621527494122
 20
-146.8850911091121
 30
0.0
 10
112.5147514909685
 20
-146.1977945598047
 30
0.0
 10
111.1597954366198
 20
-145.2176648942512
 30
0.0
 10
108.8440022514348
 20
-144.9045057146419
 30
0.0
 10
107.1362684193965
 20
-145.9724853150694
 30
0.0
 10
104.2003580468666
 20
-147.8121663041928
 30
0.0
 10
103.2643256035242
 20
-152.6101507865002
 30
0.0
 10
104.1125081119927
 20
-156.5465168879467
 30
0.0
 10
101.2065700701845
 20
-153.3794406083565
 30
0.0
 10
98.44532603875673
 20
-150.9857882652049
 30
0.0
 10
95.97898218086637
 20
-152.3131835556717
 30
0.0
 10
94.57889537566084
 20
-153.0666259382959
 30
0.0
 10
93.8185628020662
 20
-153.8813910205574
 30
0.0
 10
93.81373966838684
 20
-155.5656982032961
 30
0.0
 10
95.30443248485444
 20
-154.2286566454706
 30
0.0
 10
97.03731551393513
 20
-153.778727175097
 30
0.0
 10
98.84736868188538
 20
-156.0387098134209
 30
0.0
 10
98.46909719760495
 20
-156.0562798003957
 30
0.0
 10
97.50757104767172
 20
-156.1978732248394
 30
0.0
 10
97.26779240189833
 20
-156.5179225954192
 30
0.0
 10
102.4426703302921
 20
-159.8021321215078
 30
0.0
 10
105.7272243659293
 20
-165.5654323587823
 30
0.0
 10
110.4352918560717
 20
-168.5147786037047
 30
0.0
 10
103.7249348699021
 20
-166.6065402144248
 30
0.0
 10
99.87779674152361
 20
-156.9454589451387
 30
0.0
 10
91.0828124772293
 20
-158.6273545610376
 30
0.0
 10
91.8383219171446
 20
-160.5097547341781
 30
0.0
 10
92.84153372244934
 20
-161.5412163224619
 30
0.0
 10
93.76929793662713
 20
-162.6949788004721
 30
0.0
 10
91.5282633234721
 20
-164.058547593534
 30
0.0
 10
89.28860674851119
 20
-167.5308593331173
 30
0.0
 10
92.18696558025188
 20
-170.6583170146271
 30
0.0
  0
ENDBLK
  5
3F
330
3C
100
AcDbEntity
  8
0
100
AcDbBlockEnd
  0
ENDSEC
  0
SECTION
  2
ENTITIES
  0
INSERT
  5
3D
330
1F
100
AcDbEntity
  8
Layer 1
100
AcDbBlockReference
  2
block 2
 10
0.0
 20
0.0
 30
0.0
  0
ENDSEC
  0
SECTION
  2
OBJECTS
  0
DICTIONARY
  5
C
330
0
100
AcDbDictionary
281
     1
  3
ACAD_GROUP
350
D
  3
ACAD_LAYOUT
350
1A
  3
ACAD_MLINESTYLE
350
17
  3
ACAD_PLOTSETTINGS
350
19
  3
ACAD_PLOTSTYLENAME
350
E
  3
ACAD_TABLESTYLE
350
43
  3
ACAD_VISUALSTYLE
350
2A
  0
DICTIONARY
  5
D
102
{ACAD_REACTORS
330
C
102
}
330
C
100
AcDbDictionary
281
     1
  0
DICTIONARY
  5
1A
102
{ACAD_REACTORS
330
C
102
}
330
C
100
AcDbDictionary
281
     1
  3
Layout1
350
1E
  3
Layout2
350
26
  3
Model
350
22
  0
DICTIONARY
  5
17
102
{ACAD_REACTORS
330
C
102
}
330
C
100
AcDbDictionary
281
     1
  3
Standard
350
18
  0
DICTIONARY
  5
19
102
{ACAD_REACTORS
330
C
102
}
330
C
100
AcDbDictionary
281
     1
  0
ACDBDICTIONARYWDFLT
  5
E
102
{ACAD_REACTORS
330
C
102
}
330
C
100
AcDbDictionary
281
     1
  3
Normal
350
F
100
AcDbDictionaryWithDefault
340
F
  0
DICTIONARY
  5
43
102
{ACAD_REACTORS
330
C
102
}
330
C
100
AcDbDictionary
281
     1
  0
DICTIONARY
  5
2A
102
{ACAD_REACTORS
330
C
102
}
330
C
100
AcDbDictionary
281
     1
  3
2dWireframe
350
2F
  3
3D Hidden
350
31
  3
3dWireframe
350
30
  3
Basic
350
32
  3
Brighten
350
36
  3
ColorChange
350
3A
  3
Conceptual
350
34
  3
Dim
350
35
  3
Facepattern
350
39
  3
Flat
350
2B
  3
FlatWithEdges
350
2C
  3
Gouraud
350
2D
  3
GouraudWithEdges
350
2E
  3
Linepattern
350
38
  3
Realistic
350
33
  3
Thicken
350
37
  0
LAYOUT
  5
1E
102
{ACAD_REACTORS
330
1A
102
}
330
1A
100
AcDbPlotSettings
  1

  2
none_device
  4

  6

 40
0.0
 41
0.0
 42
0.0
 43
0.0
 44
0.0
 45
0.0
 46
0.0
 47
0.0
 48
0.0
 49
0.0
140
0.0
141
0.0
142
1.0
143
1.0
 70
   688
 72
     0
 73
     0
 74
     5
  7

 75
    16
 76
     0
 77
     2
 78
   300
147
1.0
148
0.0
149
0.0
100
AcDbLayout
  1
Layout1
 70
     1
 71
     1
 10
0.0
 20
0.0
 11
12.0
 21
9.0
 12
0.0
 22
0.0
 32
0.0
 14
1.000000000000000E+20
 24
1.000000000000000E+20
 34
1.000000000000000E+20
 15
-1.000000000000000E+20
 25
-1.000000000000000E+20
 35
-1.000000000000000E+20
146
0.0
 13
0.0
 23
0.0
 33
0.0
 16
1.0
 26
0.0
 36
0.0
 17
0.0
 27
1.0
 37
0.0
 76
     0
330
1B
  0
LAYOUT
  5
26
102
{ACAD_REACTORS
330
1A
102
}
330
1A
100
AcDbPlotSettings
  1

  2
none_device
  4

  6

 40
0.0
 41
0.0
 42
0.0
 43
0.0
 44
0.0
 45
0.0
 46
0.0
 47
0.0
 48
0.0
 49
0.0
140
0.0
141
0.0
142
1.0
143
1.0
 70
   688
 72
     0
 73
     0
 74
     5
  7

 75
    16
 76
     0
 77
     2
 78
   300
147
1.0
148
0.0
149
0.0
100
AcDbLayout
  1
Layout2
 70
     1
 71
     2
 10
0.0
 20
0.0
 11
0.0
 21
0.0
 12
0.0
 22
0.0
 32
0.0
 14
0.0
 24
0.0
 34
0.0
 15
0.0
 25
0.0
 35
0.0
146
0.0
 13
0.0
 23
0.0
 33
0.0
 16
1.0
 26
0.0
 36
0.0
 17
0.0
 27
1.0
 37
0.0
 76
     0
330
23
  0
LAYOUT
  5
22
102
{ACAD_REACTORS
330
1A
102
}
330
1A
100
AcDbPlotSettings
  1

  2
none_device
  4

  6

 40
0.0
 41
0.0
 42
0.0
 43
0.0
 44
0.0
 45
0.0
 46
0.0
 47
0.0
 48
0.0
 49
0.0
140
0.0
141
0.0
142
1.0
143
1.0
 70
  1712
 72
     0
 73
     0
 74
     0
  7

 75
     0
 76
     0
 77
     2
 78
   300
147
1.0
148
0.0
149
0.0
100
AcDbLayout
  1
Model
 70
     1
 71
     0
 10
0.0
 20
0.0
 11
12.0
 21
9.0
 12
0.0
 22
0.0
 32
0.0
 14
1.000000000000000E+20
 24
1.000000000000000E+20
 34
1.000000000000000E+20
 15
-1.000000000000000E+20
 25
-1.000000000000000E+20
 35
-1.000000000000000E+20
146
0.0
 13
0.0
 23
0.0
 33
0.0
 16
1.0
 26
0.0
 36
0.0
 17
0.0
 27
1.0
 37
0.0
 76
     0
330
1F
331
29
  0
MLINESTYLE
  5
18
102
{ACAD_REACTORS
330
17
102
}
330
17
100
AcDbMlineStyle
  2
Standard
 70
     0
  3

 62
   256
 51
90.0
 52
90.0
 71
     2
 49
0.5
 62
   256
  6
BYLAYER
 49
-0.5
 62
   256
  6
BYLAYER
  0
ACDBPLACEHOLDER
  5
F
102
{ACAD_REACTORS
330
E
102
}
330
E
  0
VISUALSTYLE
  5
2F
102
{ACAD_REACTORS
330
2A
102
}
330
2A
100
AcDbVisualStyle
  2
2dWireframe
 70
     4
 71
     0
 72
     2
 73
     0
 90
        0
 40
-0.6
 41
-30.0
 62
     5
 63
     7
421
 16777215
 74
     1
 91
        4
 64
     7
 65
   257
 75
     1
175
     1
 42
1.0
 92
        0
 66
   257
 43
1.0
 76
     1
 77
     6
 78
     2
 67
     7
 79
     5
170
     0
171
     0
290
     0
174
     0
 93
        1
 44
0.0
173
     0
291
     0
 45
0.0
1001
ACAD
1000
AcDbSavedByObjectVersion
1070
     0
  0
VISUALSTYLE
  5
31
102
{ACAD_REACTORS
330
2A
102
}
330
2A
100
AcDbVisualStyle
  2
3D Hidden
 70
     6
 71
     1
 72
     2
 73
     2
 90
        0
 40
-0.6
 41
-30.0
 62
     5
 63
     7
421
 16777215
 74
     2
 91
        2
 64
     7
 65
   257
 75
     2
175
     1
 42
40.0
 92
        0
 66
   257
 43
1.0
 76
     1
 77
     6
 78
     2
 67
     7
 79
     3
170
     0
171
     0
290
     0
174
     0
 93
        1
 44
0.0
173
     0
291
     0
 45
0.0
1001
ACAD
1000
AcDbSavedByObjectVersion
1070
     0
  0
VISUALSTYLE
  5
30
102
{ACAD_REACTORS
330
2A
102
}
330
2A
100
AcDbVisualStyle
  2
3dWireframe
 70
     5
 71
     0
 72
     2
 73
     0
 90
        0
 40
-0.6
 41
-30.0
 62
     5
 63
     7
421
 16777215
 74
     1
 91
        4
 64
     7
 65
   257
 75
     1
175
     1
 42
1.0
 92
        0
 66
   257
 43
1.0
 76
     1
 77
     6
 78
     2
 67
     7
 79
     5
170
     0
171
     0
290
     0
174
     0
 93
        1
 44
0.0
173
     0
291
     0
 45
0.0
1001
ACAD
1000
AcDbSavedByObjectVersion
1070
     0
  0
VISUALSTYLE
  5
32
102
{ACAD_REACTORS
330
2A
102
}
330
2A
100
AcDbVisualStyle
  2
Basic
 70
     7
 71
     1
 72
     0
 73
     1
 90
        0
 40
-0.6
 41
-30.0
 62
     5
 63
     7
421
 16777215
 74
     0
 91
        4
 64
     7
 65
   257
 75
     1
175
     1
 42
1.0
 92
        8
 66
     7
 43
1.0
 76
     1
 77
     6
 78
     2
 67
     7
 79
     5
170
     0
171
     0
290
     0
174
     0
 93
        1
 44
0.0
173
     0
291
     1
 45
0.0
1001
ACAD
1000
AcDbSavedByObjectVersion
1070
     0
  0
VISUALSTYLE
  5
36
102
{ACAD_REACTORS
330
2A
102
}
330
2A
100
AcDbVisualStyle
  2
Brighten
 70
    12
 71
     2
 72
     2
 73
     0
 90
        0
 40
-0.6
 41
-30.0
 62
     5
 63
     7
421
 16777215
 74
     1
 91
        4
 64
     7
 65
   257
 75
     1
175
     1
 42
1.0
 92
        8
 66
     7
 43
1.0
 76
     1
 77
     6
 78
     2
 67
     7
 79
     5
170
     0
171
     0
290
     0
174
     0
 93
        1
 44
50.0
173
     0
291
     1
 45
0.0
1001
ACAD
1000
AcDbSavedByObjectVersion
1070
     0
  0
VISUALSTYLE
  5
3A
102
{ACAD_REACTORS
330
2A
102
}
330
2A
100
AcDbVisualStyle
  2
ColorChange
 70
    16
 71
     2
 72
     2
 73
     3
 90
        0
 40
-0.6
 41
-30.0
 62
     5
 63
     8
421
  8421504
 74
     1
 91
        4
 64
     7
 65
   257
 75
     1
175
     1
 42
1.0
 92
        8
 66
     8
424
  8421504
 43
1.0
 76
     1
 77
     6
 78
     2
 67
     7
 79
     5
170
     0
171
     0
290
     0
174
     0
 93
        1
 44
0.0
173
     0
291
     1
 45
0.0
1001
ACAD
1000
AcDbSavedByObjectVersion
1070
     0
  0
VISUALSTYLE
  5
34
102
{ACAD_REACTORS
330
2A
102
}
330
2A
100
AcDbVisualStyle
  2
Conceptual
 70
     9
 71
     3
 72
     2
 73
     0
 90
        0
 40
-0.6
 41
-30.0
 62
     5
 63
     7
421
 16777215
 74
     2
 91
        2
 64
     7
 65
   257
 75
     1
175
     1
 42
40.0
 92
        8
 66
     7
 43
1.0
 76
     1
 77
     6
 78
     2
 67
     7
 79
     3
170
     0
171
     0
290
     0
174
     0
 93
        1
 44
0.0
173
     0
291
     0
 45
0.0
1001
ACAD
1000
AcDbSavedByObjectVersion
1070
     0
  0
VISUALSTYLE
  5
35
102
{ACAD_REACTORS
330
2A
102
}
330
2A
100
AcDbVisualStyle
  2
Dim
 70
    11
 71
     2
 72
     2
 73
     0
 90
        0
 40
-0.6
 41
-30.0
 62
     5
 63
     7
421
 16777215
 74
     1
 91
        4
 64
     7
 65
   257
 75
     1
175
     1
 42
1.0
 92
        8
 66
     7
 43
1.0
 76
     1
 77
     6
 78
     2
 67
     7
 79
     5
170
     0
171
     0
290
     0
174
     0
 93
        1
 44
-50.0
173
     0
291
     1
 45
0.0
1001
ACAD
1000
AcDbSavedByObjectVersion
1070
     0
  0
VISUALSTYLE
  5
39
102
{ACAD_REACTORS
330
2A
102
}
330
2A
100
AcDbVisualStyle
  2
Facepattern
 70
    15
 71
     2
 72
     2
 73
     0
 90
        0
 40
-0.6
 41
-30.0
 62
     5
 63
     7
421
 16777215
 74
     1
 91
        4
 64
     7
 65
   257
 75
     1
175
     1
 42
1.0
 92
        8
 66
     7
 43
1.0
 76
     1
 77
     6
 78
     2
 67
     7
 79
     5
170
     0
171
     0
290
     0
174
     0
 93
        1
 44
0.0
173
     0
291
     1
 45
0.0
1001
ACAD
1000
AcDbSavedByObjectVersion
1070
     0
  0
VISUALSTYLE
  5
2B
102
{ACAD_REACTORS
330
2A
102
}
330
2A
100
AcDbVisualStyle
  2
Flat
 70
     0
 71
     2
 72
     1
 73
     1
 90
        2
 40
-0.6
 41
30.0
 62
     5
 63
     7
421
 16777215
 74
     0
 91
        4
 64
     7
 65
   257
 75
     1
175
     1
 42
1.0
 92
        8
 66
     7
 43
1.0
 76
     1
 77
     6
 78
     2
 67
     7
 79
     5
170
     0
171
     0
290
     0
174
     0
 93
       13
 44
0.0
173
     0
291
     1
 45
0.0
1001
ACAD
1000
AcDbSavedByObjectVersion
1070
     0
  0
VISUALSTYLE
  5
2C
102
{ACAD_REACTORS
330
2A
102
}
330
2A
100
AcDbVisualStyle
  2
FlatWithEdges
 70
     1
 71
     2
 72
     1
 73
     1
 90
        2
 40
-0.6
 41
30.0
 62
     5
 63
     7
421
 16777215
 74
     1
 91
        4
 64
     7
 65
   257
 75
     1
175
     1
 42
1.0
 92
        0
 66
   257
 43
1.0
 76
     1
 77
     6
 78
     2
 67
     7
 79
     5
170
     0
171
     0
290
     0
174
     0
 93
       13
 44
0.0
173
     0
291
     1
 45
0.0
1001
ACAD
1000
AcDbSavedByObjectVersion
1070
     0
  0
VISUALSTYLE
  5
2D
102
{ACAD_REACTORS
330
2A
102
}
330
2A
100
AcDbVisualStyle
  2
Gouraud
 70
     2
 71
     2
 72
     2
 73
     1
 90
        2
 40
-0.6
 41
30.0
 62
     5
 63
     7
421
 16777215
 74
     0
 91
        4
 64
     7
 65
   257
 75
     1
175
     1
 42
1.0
 92
        0
 66
     7
 43
1.0
 76
     1
 77
     6
 78
     2
 67
     7
 79
     5
170
     0
171
     0
290
     0
174
     0
 93
       13
 44
0.0
173
     0
291
     1
 45
0.0
1001
ACAD
1000
AcDbSavedByObjectVersion
1070
     0
  0
VISUALSTYLE
  5
2E
102
{ACAD_REACTORS
330
2A
102
}
330
2A
100
AcDbVisualStyle
  2
GouraudWithEdges
 70
     3
 71
     2
 72
     2
 73
     1
 90
        2
 40
-0.6
 41
30.0
 62
     5
 63
     7
421
 16777215
 74
     1
 91
        4
 64
     7
 65
   257
 75
     1
175
     1
 42
1.0
 92
        0
 66
   257
 43
1.0
 76
     1
 77
     6
 78
     2
 67
     7
 79
     5
170
     0
171
     0
290
     0
174
     0
 93
       13
 44
0.0
173
     0
291
     1
 45
0.0
1001
ACAD
1000
AcDbSavedByObjectVersion
1070
     0
  0
VISUALSTYLE
  5
38
102
{ACAD_REACTORS
330
2A
102
}
330
2A
100
AcDbVisualStyle
  2
Linepattern
 70
    14
 71
     2
 72
     2
 73
     0
 90
        0
 40
-0.6
 41
-30.0
 62
     5
 63
     7
421
 16777215
 74
     1
 91
        4
 64
     7
 65
   257
 75
     7
175
     7
 42
1.0
 92
        8
 66
     7
 43
1.0
 76
     1
 77
     6
 78
     2
 67
     7
 79
     5
170
     0
171
     0
290
     0
174
     0
 93
        1
 44
0.0
173
     0
291
     1
 45
0.0
1001
ACAD
1000
AcDbSavedByObjectVersion
1070
     0
  0
VISUALSTYLE
  5
33
102
{ACAD_REACTORS
330
2A
102
}
330
2A
100
AcDbVisualStyle
  2
Realistic
 70
     8
 71
     2
 72
     2
 73
     0
 90
        0
 40
-0.6
 41
-30.0
 62
     5
 63
     7
421
 16777215
 74
     1
 91
        0
 64
     7
 65
   257
 75
     1
175
     1
 42
1.0
 92
        8
 66
     8
424
  7895160
 43
1.0
 76
     1
 77
     6
 78
     2
 67
     7
 79
     5
170
     0
171
     0
290
     0
174
     0
 93
       13
 44
0.0
173
     0
291
     0
 45
0.0
1001
ACAD
1000
AcDbSavedByObjectVersion
1070
     0
  0
VISUALSTYLE
  5
37
102
{ACAD_REACTORS
330
2A
102
}
330
2A
100
AcDbVisualStyle
  2
Thicken
 70
    13
 71
     2
 72
     2
 73
     0
 90
        0
 40
-0.6
 41
-30.0
 62
     5
 63
     7
421
 16777215
 74
     1
 91
        4
 64
     7
 65
   257
 75
     1
175
     1
 42
1.0
 92
       12
 66
     7
 43
1.0
 76
     1
 77
     6
 78
     2
 67
     7
 79
     5
170
     0
171
     0
290
     0
174
     0
 93
        1
 44
0.0
173
     0
291
     1
 45
0.0
1001
ACAD
1000
AcDbSavedByObjectVersion
1070
     0
  0
ENDSEC
  0
EOF
