<?xml version="1.0" encoding="utf-8"?>
<!-- Generator: Adobe Illustrator 16.0.0, SVG Export Plug-In . SVG Version: 6.00 Build 0)  -->
<!DOCTYPE svg PUBLIC "-//W3C//DTD SVG 1.1//EN" "http://www.w3.org/Graphics/SVG/1.1/DTD/svg11.dtd">
<svg version="1.1" id="Layer_1" xmlns="http://www.w3.org/2000/svg" xmlns:xlink="http://www.w3.org/1999/xlink" x="0px" y="0px"
	 width="792px" height="612px" viewBox="0 0 792 612" enable-background="new 0 0 792 612" xml:space="preserve">
<path fill="#BE1E2D" d="M542.493,530.501l-25.018-78.554c-11.55-40.494-34.37-76.635-56.632-107.921
	c-5.316-7.469-10.902-15.005-16.303-22.293c-2.954-3.985-5.91-7.974-8.844-11.978l-1.079-1.964c-1.056-1.916-2.054-3.725-2.283-4.33
	c-2.349-6.207-3.761-12.763-4.198-19.485c-0.82-12.598,2.547-25.659,9.48-36.777c13.613-21.834,41.641-36.406,68.869-22.011
	c4.093,2.163,7.783,4.882,10.989,8.012v-10.171c-6.906-5.04-15.069-8.631-23.792-10.097c-20.223-3.403-40.469,4.673-55.604,22.221
	c-10.487,13.766-15.825,28.608-15.865,44.115c-0.011,4.526,0.41,9.004,1.254,13.389c-18.068-26.08-34.791-54.951-40.594-89.122
	c-2.632-15.498-2.045-36.054,7.496-47.269c4.883-5.74,11.742-8.648,20.393-8.648c0.094,0,0.188,0,0.283,0.001
	c10.637,0.078,20.484,5.856,27.018,15.853c7.479,11.444,9.154,26.186,4.27,37.554c-0.286,0.666-0.055,1.442,0.549,1.842
	c0.605,0.401,1.408,0.313,1.911-0.211c8.538-8.888,9.605-24.12,6.876-35.273c-2.614-10.671-8.76-20.237-17.304-26.937
	c-9.999-7.836-22.662-10.854-34.742-8.278c-11.431,2.437-20.759,9.522-26.265,19.949c-1.83,3.466-3.316,7.193-4.439,11.125
	l-2.005,9.901c-2.564,20.498,3.817,41.296,9.638,55.163c5.493,13.093,12.805,26.642,22.776,42.156
	c-15.858-11.08-34.627-18.329-54.793-21.103c-3.144-0.432-6.291-0.741-9.437-0.95v5.878c11.041,1.002,21.926,3.563,32.396,7.703
	c19.037,7.526,36.252,20.782,55.821,42.98c0.011,0.012,0.021,0.023,0.032,0.035c5.277,7.146,10.734,14.334,16.014,21.287
	c14.409,18.979,29.309,38.603,41.977,59.249c11.658,19.008,20.697,38.305,27.07,57.753c-10.484-26.601-25.919-49.154-45.121-65.187
	c-14.381-12.005-37.783-22.46-60.346-15.797c-20.107,5.941-34.517,27.757-33.517,50.744c0.028,0.644,0.463,1.197,1.082,1.376
	c0.618,0.175,1.283-0.058,1.649-0.587c9.063-13.071,24.233-29.131,45.036-31.406c9.4-1.03,19.176,0.827,29.15,5.522
	c-1.498-0.216-2.997-0.373-4.493-0.472c-14.259-0.932-28.226,2.723-40.461,10.631c-13.801,9.95-22.171,21.645-24.876,34.758
	c-2.816,13.636-0.22,27.659,7.356,39.557c8.63,12.03,19.392,19.256,31.124,20.894c13.145,1.833,26.121-2.134,35.601-10.885
	c9.532-8.798,14.586-20.589,13.864-32.35c-0.281-4.585-1.848-13.067-9.182-18.375c-2.656-1.92-7.232-3.8-11.383-2.778
	c-2.652,0.652-4.758,2.405-6.088,5.07c-0.77,1.538-0.807,3.329-0.104,4.913c0.684,1.54,2.006,2.683,3.626,3.134
	c1.928,0.541,3.651-0.052,5.175-0.571c1.241-0.425,2.314-0.792,3.354-0.568c5.649,1.209,7.373,9.53,7.04,13.716
	c-0.867,10.791-5.674,19.224-14.695,25.777c-9.234,6.707-20.259,8.45-31.045,4.913c-12.591-4.131-23.014-14.855-27.202-27.99
	c-6.78-21.27,2.939-44.048,24.185-56.682c10.455-6.213,22.744-9.089,34.602-8.11c5.978,0.493,11.858,1.915,17.481,4.227
	c0.252,0.103,1.033,0.508,2.323,1.205c6.906,5.289,13.771,11.914,19.86,19.167c26.205,31.217,38.155,72.282,34.304,113.514
	L542.493,530.501z"/>
<path fill="none" d="M481.459,287.581c0.879-4.563-1.347-7.168-3.723-8.084c-2.894-1.113-7.109-0.135-9.559,3.902
	c-1.832,3.033-2.045,6.526-0.613,10.104c2.541,6.354,9.868,11.854,15.198,13.307c9.037,2.466,20.265,1.564,29.302-2.353
	c1.888-0.817,3.69-1.778,5.411-2.855v-10.055c-8.474,6.91-20.734,9.545-31.786,6.541c-2.649-0.721-4.524-2.128-5.279-3.963
	c-0.719-1.749-0.416-3.851,0.873-6.077C481.367,287.903,481.427,287.745,481.459,287.581z"/>
</svg>
