<?xml version="1.0" encoding="utf-8"?>
<!-- Generator: Adobe Illustrator 16.0.0, SVG Export Plug-In . SVG Version: 6.00 Build 0)  -->
<!DOCTYPE svg PUBLIC "-//W3C//DTD SVG 1.1//EN" "http://www.w3.org/Graphics/SVG/1.1/DTD/svg11.dtd">
<svg version="1.1" id="Layer_1" xmlns="http://www.w3.org/2000/svg" xmlns:xlink="http://www.w3.org/1999/xlink" x="0px" y="0px"
	 width="612px" height="792px" viewBox="0 0 612 792" enable-background="new 0 0 612 792" xml:space="preserve">
<g>
	<path fill="#231F20" d="M314.738,579.395c-45.73,0-74.378-36.301-74.378-72.537c0-30.263,14.965-57.774,34.645-80.668
		c6.217,5.24,14.716,8.609,25.763,8.609c17.504,0,32-9.76,40.849-24.422c21.546-4.367,32.949-19.743,32.949-19.743v-8.965
		c0,0-9.416,16.565-29.678,22.491c3.932-8.603,6.119-18.439,6.119-28.759c0-3.299-0.102-6.486-0.252-9.619
		c3.99-2.169,7.462-3.886,10.218-5.104c14.73-6.51,15.352-5.593,15.352-5.593v-28.363c0,0-0.168-1.267-16.343,8.1
		c-3.55,2.055-7.529,4.515-11.824,7.348c-1.658-9.483-3.909-18.197-6.473-26.334c18.702-10.559,33.246-16.637,33.246-16.637
		l-0.365-27.847c0,0-8.464,9.188-20.337,18.317c-5.199,3.999-11.053,8.32-17.135,12.822c-2.8-7.577-5.714-14.717-8.435-21.653
		c10.981-7.133,22.193-14.023,27.577-18.004c10.76-7.956,18.694-17.747,18.694-17.747l-0.365-23.006c0,0-3.882,11.884-17.279,25.284
		c-6.369,6.366-19.631,16.315-31.732,25.347c-5.004-13.526-8.749-26.585-8.749-40.943c0-18.205,2.129-24.282,2.129-24.282h-6.597
		c0,0-1.815,7.701-1.815,24.282c0,17.171,3.994,31.381,9.306,45.219c-7.627,5.708-14.179,10.696-17.303,13.65
		c-20.707,19.582-30.143,37.609-30.143,61.281c0,3.721,0.28,7.272,0.804,10.655c-6.547,10.25-11.587,21.768-11.587,32.827
		c0,7.488,1.895,15.302,5.927,21.981c-19.326,26.292-33.404,56.765-33.404,89.226c0,38.181,32.046,77.955,80.741,77.955
		c42.402,0,64.103-33.71,64.103-33.71v-11.103C378.965,539.749,358.106,579.395,314.738,579.395z M300.768,429.266
		c-8.882,0-16.262-2.866-21.829-7.527c6.334-6.966,13.062-13.466,19.872-19.446c9.603,6.111,20.694,9.238,31.301,9.238
		c1.466,0,2.887-0.066,4.282-0.168C324.922,423.336,311.458,429.266,300.768,429.266z M346.119,375.342
		c0,12.176-3.047,22.254-7.785,30.28c-2.594,0.398-5.334,0.621-8.223,0.621c-10.247,0-19.511-2.704-27.309-7.39
		c15.502-13.102,31.115-23.462,43.186-30.406C346.071,370.697,346.119,372.991,346.119,375.342z M343.552,345.269
		c-15.595,10.703-34.534,25.79-52.246,44.111c-5.965-6.613-10.211-14.798-12.25-23.871c2.702-3.928,5.541-7.408,8.152-10.017
		c14.675-14.676,33.18-27.234,49.41-36.742C339.406,326.879,341.843,335.598,343.552,345.269z M277.672,353.048
		c0-17.767,6.429-34.431,25.761-53.76c3.981-3.982,11.345-9.254,19.454-14.656c2.929,7.077,6.071,14.184,9.072,21.667
		c-14.034,10.432-28.637,21.586-38.829,31.777c-4.578,4.578-10.18,10.763-15.383,17.851
		C277.699,354.974,277.672,354.014,277.672,353.048z M267.133,395.316c0-7.03,3.508-15.852,8.121-23.803
		c2.663,8.546,7.039,15.755,12.494,21.603c-5.689,6.09-11.215,12.517-16.424,19.234
		C268.589,407.263,267.133,401.405,267.133,395.316z"/>
</g>
</svg>
